<?xml version="1.0" encoding="utf-8"?>
<!-- Generator: Adobe Illustrator 18.0.0, SVG Export Plug-In . SVG Version: 6.00 Build 0)  -->
<!DOCTYPE svg PUBLIC "-//W3C//DTD SVG 1.1//EN" "http://www.w3.org/Graphics/SVG/1.1/DTD/svg11.dtd">
<svg version="1.1" id="Layer_1" xmlns="http://www.w3.org/2000/svg" xmlns:xlink="http://www.w3.org/1999/xlink" x="0px" y="0px"
	 viewBox="0 0 750 1334" enable-background="new 0 0 750 1334" xml:space="preserve">
<polygon fill="#66FF00" points="595,563.8 595,647 656,646 656,563.8 "/>
<line fill="none" stroke="#A0832F" stroke-width="2" stroke-linecap="round" x1="332.5" y1="-4.7" x2="332.5" y2="1198.3"/>
<g>
	<g>
		<g>
			<g>
				<defs>
					<polygon id="SVGID_1_" points="-9.5,1222.3 764.8,1223.3 764.8,-28.7 -9.5,-29.7 					"/>
				</defs>
				<clipPath id="SVGID_2_">
					<use xlink:href="#SVGID_1_"  overflow="visible"/>
				</clipPath>
				
					<line clip-path="url(#SVGID_2_)" fill="none" stroke="#A0832F" stroke-width="2" stroke-linecap="round" x1="333" y1="1198.3" x2="757.5" y2="1222.3"/>
			</g>
		</g>
	</g>
</g>
<line fill="none" stroke="#A0832F" stroke-width="2" stroke-linecap="round" x1="170.5" y1="956.3" x2="278.5" y2="962.3"/>
<line fill="none" stroke="#A0832F" stroke-width="2" stroke-linecap="round" x1="278.5" y1="962.8" x2="318.5" y2="945.3"/>
<g>
	<g>
		<g>
			<g>
				<defs>
					<polygon id="SVGID_3_" points="-9.5,1222.3 764.8,1223.3 764.8,-28.7 -9.5,-29.7 					"/>
				</defs>
				<clipPath id="SVGID_4_">
					<use xlink:href="#SVGID_3_"  overflow="visible"/>
				</clipPath>
				
					<line clip-path="url(#SVGID_4_)" fill="none" stroke="#A0832F" stroke-width="2" stroke-linecap="round" x1="317.7" y1="945.9" x2="317.7" y2="-27.7"/>
			</g>
		</g>
	</g>
</g>
<line fill="none" stroke="#A0832F" stroke-width="2" stroke-linecap="round" x1="170.5" y1="955.8" x2="170.5" y2="-17.7"/>
<line fill="none" stroke="#A0832F" stroke-width="2" stroke-linecap="round" x1="-11.3" y1="971.7" x2="97.5" y2="925.3"/>
<line fill="none" stroke="#A0832F" stroke-width="2" stroke-linecap="round" x1="97.7" y1="924.9" x2="170" y2="924.9"/>
<line fill="none" stroke="#A0832F" stroke-width="2" stroke-linecap="round" x1="-2" y1="244.3" x2="97.7" y2="296.3"/>
<line fill="none" stroke="#A0832F" stroke-width="2" stroke-linecap="round" x1="97.7" y1="296.8" x2="171" y2="296.8"/>
<line fill="none" stroke="#A0832F" stroke-width="2" stroke-linecap="round" x1="318.2" y1="306.3" x2="332.5" y2="306.3"/>
<line fill="none" stroke="#A0832F" stroke-width="2" stroke-linecap="round" x1="318.2" y1="935.3" x2="333" y2="935.3"/>
<line fill="none" stroke="#A0832F" stroke-linecap="round" x1="278.6" y1="963.8" x2="278.6" y2="-15.7"/>
<line fill="none" stroke="#A0832F" stroke-linecap="round" x1="97.7" y1="925.9" x2="97.7" y2="296.3"/>
<line fill="none" stroke="#A0832F" stroke-linecap="round" x1="112.5" y1="312.3" x2="169.5" y2="312.3"/>
<line fill="none" stroke="#A0832F" stroke-linecap="round" x1="112.5" y1="312.3" x2="112.5" y2="414.3"/>
<line fill="none" stroke="#A0832F" stroke-linecap="round" x1="113" y1="414.3" x2="169.5" y2="414.3"/>
<line fill="none" stroke="#A0832F" stroke-linecap="round" x1="113" y1="428.3" x2="169.5" y2="428.3"/>
<line fill="none" stroke="#A0832F" stroke-linecap="round" x1="113" y1="428.8" x2="113" y2="724.3"/>
<line fill="none" stroke="#A0832F" stroke-linecap="round" x1="113.5" y1="724.3" x2="169.5" y2="724.3"/>
<line fill="none" stroke="#A0832F" stroke-linecap="round" x1="113.5" y1="740.3" x2="169.5" y2="740.3"/>
<line fill="none" stroke="#A0832F" stroke-linecap="round" x1="112" y1="740.8" x2="112" y2="910.3"/>
<line fill="none" stroke="#A0832F" stroke-linecap="round" x1="113.5" y1="910.3" x2="170" y2="910.3"/>
<line fill="none" stroke="#A0832F" stroke-linecap="round" x1="-11.3" y1="951.5" x2="84.5" y2="915.3"/>
<line fill="none" stroke="#A0832F" stroke-linecap="round" x1="84.7" y1="914.9" x2="84.7" y2="739.8"/>
<g>
	<g>
		<g>
			<g>
				<defs>
					<polygon id="SVGID_5_" points="-9.5,1222.3 764.8,1223.3 764.8,-28.7 -9.5,-29.7 					"/>
				</defs>
				<clipPath id="SVGID_6_">
					<use xlink:href="#SVGID_5_"  overflow="visible"/>
				</clipPath>
				
					<line clip-path="url(#SVGID_6_)" fill="none" stroke="#A0832F" stroke-linecap="round" x1="85.2" y1="739.8" x2="0.5" y2="750.3"/>
			</g>
		</g>
	</g>
</g>
<line fill="none" stroke="#A0832F" stroke-linecap="round" x1="-1" y1="734.3" x2="85.2" y2="724.8"/>
<line fill="none" stroke="#A0832F" stroke-linecap="round" x1="85.3" y1="724.8" x2="85.3" y2="305.3"/>
<line fill="none" stroke="#A0832F" stroke-linecap="round" x1="85.8" y1="305.3" x2="-2" y2="261.3"/>
<line fill="none" stroke="#A0832F" stroke-linecap="round" x1="690.5" y1="1218.3" x2="690.5" y2="336.3"/>
<g>
	<g>
		<g>
			<g>
				<defs>
					<polygon id="SVGID_7_" points="-9.5,1222.3 764.8,1223.3 764.8,-28.7 -9.5,-29.7 					"/>
				</defs>
				<clipPath id="SVGID_8_">
					<use xlink:href="#SVGID_7_"  overflow="visible"/>
				</clipPath>
				
					<line clip-path="url(#SVGID_8_)" fill="none" stroke="#A0832F" stroke-linecap="round" x1="691" y1="336.3" x2="764.3" y2="335.3"/>
			</g>
		</g>
	</g>
</g>
<line fill="none" stroke="#A0832F" stroke-linecap="round" x1="706.5" y1="363.3" x2="757.5" y2="362.3"/>
<line fill="none" stroke="#A0832F" stroke-linecap="round" x1="706.5" y1="363.8" x2="706.5" y2="1218.3"/>
<rect x="542" y="760.8" fill="none" stroke="#A0832F" stroke-width="2" stroke-linecap="round" width="31" height="47"/>
<rect x="595" y="563.8" fill="none" stroke="#A0832F" stroke-width="2" stroke-linecap="round" width="61" height="83"/>
<g>
	<g>
		<g>
			<g>
				<defs>
					<polygon id="SVGID_9_" points="-9.5,1222.3 764.8,1223.3 764.8,-28.7 -9.5,-29.7 					"/>
				</defs>
				<clipPath id="SVGID_10_">
					<use xlink:href="#SVGID_9_"  overflow="visible"/>
				</clipPath>
				<path clip-path="url(#SVGID_10_)" fill="none" stroke="#A0832F" d="M637.6,623.1c0.5,0,0.9,0.3,0.9,0.8c0,0.6-0.4,0.9-1.1,0.9
					h-1.8v-1.7H637.6z M637,626.1c0.7,0,1.2,0.4,1.2,1.1c0,0.8,0.1,1.5,0.4,1.8h1.7c-0.3-0.3-0.5-0.9-0.6-1.9c0-0.9-0.6-1.3-1.1-1.6
					c0.7-0.3,1.4-0.9,1.4-1.8c0-1.2-1-2-2.4-2H634v7.2h1.6V626L637,626.1L637,626.1z M630.8,629h1.6v-7.2h-1.6V629z M627.3,626.1
					h-1.4l0.7-2.5L627.3,626.1z M625.5,627.4h2.2l0.5,1.6h1.6l-2.4-7.2h-1.6l-2.4,7.2h1.6L625.5,627.4z M619.8,623.1v5.9h1.6v-5.9
					h2.4v-1.3h-6.2v1.3H619.8z M613.9,621.6c-1.5,0-2.8,0.8-2.8,2.2c0,1.3,1,1.8,2,2.1c0.5,0.2,1,0.3,1.6,0.4
					c0.6,0.1,0.8,0.4,0.8,0.7c0,0.4-0.4,0.9-1.3,0.9c-1.4,0-1.9-0.9-2-1.4l-1.3,0.5c0.5,1.8,2.2,2.3,3.4,2.3c1.7,0,2.9-0.9,2.9-2.3
					c0-1.3-1-1.8-1.9-2c-0.5-0.1-1-0.2-1.5-0.4c-0.7-0.2-1-0.5-1-0.8c0-0.5,0.5-0.8,1.3-0.8c1.3,0,1.9,1.2,1.9,1.2l1.1-0.8
					C616.5,622.4,615.4,621.6,613.9,621.6z"/>
			</g>
		</g>
	</g>
	<g>
		<g>
			<g>
				<defs>
					<polygon id="SVGID_11_" points="-9.5,1222.3 764.8,1223.3 764.8,-28.7 -9.5,-29.7 					"/>
				</defs>
				<clipPath id="SVGID_12_">
					<use xlink:href="#SVGID_11_"  overflow="visible"/>
				</clipPath>
				<path clip-path="url(#SVGID_12_)" fill="none" stroke="#A0832F" d="M641.4,620h1.6v-7.2h-1.6v2.7h-2.9v-2.7h-1.6v7.2h1.6v-3.1
					h2.9V620z M632.1,614.1v5.9h1.6v-5.9h2.4v-1.3h-6.2v1.3H632.1z M622.9,617.4c0,1.8,1.4,2.8,3,2.8c1.9,0,3.1-1,3.1-2.9v-4.6h-1.6
					v4.6c0,0.8-0.5,1.5-1.4,1.5c-1,0-1.5-0.6-1.5-1.5v-4.6h-1.6V617.4z M616.3,616.4c0-1.5,0.7-2.5,1.9-2.5c1.3,0,1.9,1.1,1.9,2.5
					c0,1.7-0.8,2.5-1.9,2.5C616.9,618.9,616.3,617.9,616.3,616.4z M614.7,616.4c0,2.3,1.4,3.8,3.5,3.8c2,0,3.5-1.4,3.5-3.8
					c0-2.3-1.4-3.8-3.5-3.8C616.2,612.6,614.7,614.1,614.7,616.4z M610.8,612.6c-1.5,0-2.8,0.8-2.8,2.2c0,1.3,1,1.8,2,2.1
					c0.5,0.2,1,0.3,1.6,0.4c0.6,0.1,0.8,0.4,0.8,0.7c0,0.4-0.4,0.9-1.3,0.9c-1.4,0-1.9-0.9-2-1.4l-1.3,0.5c0.5,1.8,2.2,2.3,3.4,2.3
					c1.7,0,2.9-0.9,2.9-2.3c0-1.3-1-1.8-1.9-2c-0.5-0.1-1-0.2-1.5-0.4c-0.7-0.2-1-0.5-1-0.8c0-0.5,0.5-0.8,1.3-0.8
					c1.3,0,1.9,1.2,1.9,1.2l1.1-0.8C613.4,613.4,612.3,612.6,610.8,612.6z"/>
			</g>
		</g>
	</g>
</g>
<polygon fill="none" stroke="#A0832F" stroke-linecap="round" points="639,579.8 639,576.8 630.5,576.3 630.5,582.8 625,582.8 
	625,588.8 619.5,588.3 619.5,594.8 614,594.8 614,597.8 622.5,598.4 622.5,591.8 628,591.8 628,585.8 633.5,585.8 633.5,579.8 "/>
<g>
	<g>
		<g>
			<g>
				<defs>
					<polygon id="SVGID_13_" points="-9.5,1222.3 764.8,1223.3 764.8,-28.7 -9.5,-29.7 					"/>
				</defs>
				<clipPath id="SVGID_14_">
					<use xlink:href="#SVGID_13_"  overflow="visible"/>
				</clipPath>
				<circle clip-path="url(#SVGID_14_)" fill="none" stroke="#A0832F" stroke-linecap="round" cx="550.5" cy="774.3" r="2.5"/>
			</g>
		</g>
	</g>
</g>
</svg>
