<?xml version="1.0" encoding="utf-8"?>
<!-- Generator: Adobe Illustrator 18.0.0, SVG Export Plug-In . SVG Version: 6.00 Build 0)  -->
<!DOCTYPE svg PUBLIC "-//W3C//DTD SVG 1.1//EN" "http://www.w3.org/Graphics/SVG/1.1/DTD/svg11.dtd">
<svg version="1.1" id="Layer_1" xmlns="http://www.w3.org/2000/svg" xmlns:xlink="http://www.w3.org/1999/xlink" x="0px" y="0px"
	 viewBox="0 0 750 1334" enable-background="new 0 0 750 1334" xml:space="preserve">
<polygon fill="#65FF00" points="221.4,477.2 221.4,531.2 311.6,532.1 311.6,477.2 "/>
<polyline fill="none" stroke="#A18200" stroke-width="2" stroke-linecap="round" points="772.8,1192.2 668.3,1159.4 670.4,-37.3 "/>
<polyline fill="none" stroke="#A18200" stroke-width="2" stroke-linecap="round" points="-213.7,1385.7 71.5,1347.7 65.8,-37.3 "/>
<line fill="none" stroke="#A18200" stroke-width="2" stroke-linecap="round" x1="68" y1="353.2" x2="451.8" y2="299.2"/>
<line fill="none" stroke="#A18200" stroke-width="2" stroke-linecap="round" x1="451.9" y1="298.7" x2="545.8" y2="317.2"/>
<line fill="none" stroke="#A18200" stroke-width="2" stroke-linecap="round" x1="545.9" y1="317.7" x2="545.9" y2="686.2"/>
<line fill="none" stroke="#A18200" stroke-width="2" stroke-linecap="round" x1="72" y1="931.2" x2="451.8" y2="1054.1"/>
<line fill="none" stroke="#A18200" stroke-width="2" stroke-linecap="round" x1="452.3" y1="1054.1" x2="538.1" y2="1007.2"/>
<line fill="none" stroke="#A18200" x1="451.8" y1="298.2" x2="451.8" y2="1054.1"/>
<polygon fill="none" stroke="#A18200" points="216.3,371.7 216.8,694.2 421.3,707.7 421.3,354.7 "/>
<polygon fill="none" stroke="#A18200" points="221.9,382.1 222.4,687 412.3,699.7 412.3,366 "/>
<line fill="none" stroke="#A18200" x1="311.6" y1="374.2" x2="311.6" y2="694.2"/>
<line fill="none" stroke="#A18200" x1="221.4" y1="432.2" x2="412.8" y2="423.2"/>
<line fill="none" stroke="#A18200" x1="221.4" y1="477.2" x2="412.8" y2="475.2"/>
<line fill="none" stroke="#A18200" x1="221.4" y1="531.2" x2="412.8" y2="532.9"/>
<line fill="none" stroke="#A18200" x1="221.4" y1="582.2" x2="412.8" y2="585.2"/>
<line fill="none" stroke="#A18200" x1="221.4" y1="627.2" x2="412.8" y2="637.2"/>
<g>
	<g>
		<defs>
			<rect id="SVGID_1_" x="-235.6" y="-48.8" width="1094.4" height="1459.2"/>
		</defs>
		<clipPath id="SVGID_2_">
			<use xlink:href="#SVGID_1_"  overflow="visible"/>
		</clipPath>
		<circle clip-path="url(#SVGID_2_)" fill="none" stroke="#A18200" cx="234.3" cy="400.7" r="5"/>
	</g>
	<g>
		<defs>
			<rect id="SVGID_3_" x="-235.6" y="-48.8" width="1094.4" height="1459.2"/>
		</defs>
		<clipPath id="SVGID_4_">
			<use xlink:href="#SVGID_3_"  overflow="visible"/>
		</clipPath>
		<circle clip-path="url(#SVGID_4_)" fill="none" stroke="#A18200" cx="320.3" cy="394.7" r="5"/>
	</g>
	<g>
		<defs>
			<rect id="SVGID_5_" x="-235.6" y="-48.8" width="1094.4" height="1459.2"/>
		</defs>
		<clipPath id="SVGID_6_">
			<use xlink:href="#SVGID_5_"  overflow="visible"/>
		</clipPath>
		<circle clip-path="url(#SVGID_6_)" fill="none" stroke="#A18200" cx="234.3" cy="455.7" r="5"/>
	</g>
	<g>
		<defs>
			<rect id="SVGID_7_" x="-235.6" y="-48.8" width="1094.4" height="1459.2"/>
		</defs>
		<clipPath id="SVGID_8_">
			<use xlink:href="#SVGID_7_"  overflow="visible"/>
		</clipPath>
		<circle clip-path="url(#SVGID_8_)" fill="none" stroke="#A18200" cx="320.3" cy="449.7" r="5"/>
	</g>
	<g>
		<defs>
			<rect id="SVGID_9_" x="-235.6" y="-48.8" width="1094.4" height="1459.2"/>
		</defs>
		<clipPath id="SVGID_10_">
			<use xlink:href="#SVGID_9_"  overflow="visible"/>
		</clipPath>
		<circle clip-path="url(#SVGID_10_)" fill="none" stroke="#A18200" cx="234.3" cy="502.8" r="5"/>
	</g>
	<g>
		<defs>
			<rect id="SVGID_11_" x="-235.6" y="-48.8" width="1094.4" height="1459.2"/>
		</defs>
		<clipPath id="SVGID_12_">
			<use xlink:href="#SVGID_11_"  overflow="visible"/>
		</clipPath>
		<circle clip-path="url(#SVGID_12_)" fill="none" stroke="#A18200" cx="321.3" cy="502.8" r="5"/>
	</g>
	<g>
		<defs>
			<rect id="SVGID_13_" x="-235.6" y="-48.8" width="1094.4" height="1459.2"/>
		</defs>
		<clipPath id="SVGID_14_">
			<use xlink:href="#SVGID_13_"  overflow="visible"/>
		</clipPath>
		<circle clip-path="url(#SVGID_14_)" fill="none" stroke="#A18200" cx="232.9" cy="558.1" r="5"/>
	</g>
	<g>
		<defs>
			<rect id="SVGID_15_" x="-235.6" y="-48.8" width="1094.4" height="1459.2"/>
		</defs>
		<clipPath id="SVGID_16_">
			<use xlink:href="#SVGID_15_"  overflow="visible"/>
		</clipPath>
		<circle clip-path="url(#SVGID_16_)" fill="none" stroke="#A18200" cx="320.9" cy="559.1" r="5"/>
	</g>
	<g>
		<defs>
			<rect id="SVGID_17_" x="-235.6" y="-48.8" width="1094.4" height="1459.2"/>
		</defs>
		<clipPath id="SVGID_18_">
			<use xlink:href="#SVGID_17_"  overflow="visible"/>
		</clipPath>
		<circle clip-path="url(#SVGID_18_)" fill="none" stroke="#A18200" cx="231.3" cy="604.4" r="5"/>
	</g>
	<g>
		<defs>
			<rect id="SVGID_19_" x="-235.6" y="-48.8" width="1094.4" height="1459.2"/>
		</defs>
		<clipPath id="SVGID_20_">
			<use xlink:href="#SVGID_19_"  overflow="visible"/>
		</clipPath>
		<circle clip-path="url(#SVGID_20_)" fill="none" stroke="#A18200" cx="321.3" cy="607.4" r="5"/>
	</g>
	<g>
		<defs>
			<rect id="SVGID_21_" x="-235.6" y="-48.8" width="1094.4" height="1459.2"/>
		</defs>
		<clipPath id="SVGID_22_">
			<use xlink:href="#SVGID_21_"  overflow="visible"/>
		</clipPath>
		<circle clip-path="url(#SVGID_22_)" fill="none" stroke="#A18200" cx="232.9" cy="656.2" r="5"/>
	</g>
	<g>
		<defs>
			<rect id="SVGID_23_" x="-235.6" y="-48.8" width="1094.4" height="1459.2"/>
		</defs>
		<clipPath id="SVGID_24_">
			<use xlink:href="#SVGID_23_"  overflow="visible"/>
		</clipPath>
		<circle clip-path="url(#SVGID_24_)" fill="none" stroke="#A18200" cx="321.3" cy="660.1" r="5"/>
	</g>
</g>
<line fill="none" stroke="#A18200" stroke-width="2" stroke-linecap="round" x1="529.8" y1="688.2" x2="649.8" y2="674.2"/>
<line fill="none" stroke="#A18200" stroke-width="2" stroke-linecap="round" x1="650.8" y1="674.2" x2="669.3" y2="674.1"/>
<line fill="none" stroke="#A18200" stroke-width="2" stroke-linecap="round" x1="529.7" y1="688.2" x2="529.7" y2="752.2"/>
<line fill="none" stroke="#A18200" stroke-width="2" stroke-linecap="round" x1="530.2" y1="752.2" x2="539.1" y2="756.2"/>
<line fill="none" stroke="#A18200" stroke-width="2" stroke-linecap="round" x1="539.1" y1="756.7" x2="539.1" y2="1091.4"/>
<line fill="none" stroke="#A18200" stroke-width="2" stroke-linecap="round" x1="538.6" y1="1091.4" x2="563.4" y2="1096.3"/>
<line fill="none" stroke="#A18200" stroke-width="2" stroke-linecap="round" x1="563.5" y1="1096.8" x2="563.5" y2="1081.8"/>
<line fill="none" stroke="#A18200" stroke-width="2" stroke-linecap="round" x1="564" y1="1081.8" x2="667.3" y2="1109.2"/>
<line fill="none" stroke="#A18200" stroke-width="2" stroke-linecap="round" x1="71" y1="708.3" x2="193" y2="725.3"/>
<line fill="none" stroke="#A18200" stroke-width="2" stroke-linecap="round" x1="193" y1="725.7" x2="193" y2="886.2"/>
<line fill="none" stroke="#A18200" stroke-width="2" stroke-linecap="round" x1="193.5" y1="886.2" x2="68.8" y2="856.8"/>
<line fill="none" stroke="#A18200" x1="68.7" y1="810.2" x2="192.5" y2="839.6"/>
<line fill="none" stroke="#A18200" x1="530.7" y1="689.2" x2="667.3" y2="700.3"/>
<line fill="none" stroke="#A18200" x1="538.1" y1="754.2" x2="667.3" y2="770.2"/>
<g>
	<g>
		<defs>
			<rect id="SVGID_25_" x="-235.6" y="-48.8" width="1094.4" height="1459.2"/>
		</defs>
		<clipPath id="SVGID_26_">
			<use xlink:href="#SVGID_25_"  overflow="visible"/>
		</clipPath>
		<path clip-path="url(#SVGID_26_)" fill="none" stroke="#A18200" d="M637.8,743.2c0-4.1-3.4-8.5-7.5-8.5l-37.5-4.7
			c-0.7-0.2-1.3-0.3-2-0.3c-0.1,0-0.2,0-0.3,0h-0.2v0.1c-3.9,0.3-7,2.5-7,6.4c0,4,3.1,8.2,7,8.5l0,0l38.3,4.8
			c0.6,0.1,1.1,0.2,1.7,0.2C634.4,749.7,637.8,747.4,637.8,743.2z"/>
	</g>
</g>
<polygon fill="#65FF00" points="649.8,674.2 530.7,689.2 667.3,700.3 669.3,674.1 "/>
</svg>
