<?xml version="1.0" encoding="utf-8"?>
<!-- Generator: Adobe Illustrator 18.0.0, SVG Export Plug-In . SVG Version: 6.00 Build 0)  -->
<!DOCTYPE svg PUBLIC "-//W3C//DTD SVG 1.1//EN" "http://www.w3.org/Graphics/SVG/1.1/DTD/svg11.dtd">
<svg version="1.1" id="Layer_1" xmlns="http://www.w3.org/2000/svg" xmlns:xlink="http://www.w3.org/1999/xlink" x="0px" y="0px"
	 viewBox="0 0 750 1334" enable-background="new 0 0 750 1334" xml:space="preserve">
<polygon fill="#65FF00" points="255.5,493.5 452.5,493.5 452.5,687.5 255,688 "/>
<g>
	<g>
		<defs>
			<rect id="SVGID_1_" x="-4" y="-24" width="457.5" height="1432"/>
		</defs>
		<clipPath id="SVGID_2_">
			<use xlink:href="#SVGID_1_"  overflow="visible"/>
		</clipPath>
		<line clip-path="url(#SVGID_2_)" fill="none" stroke="#A18200" x1="177" y1="-15" x2="177" y2="1408"/>
	</g>
	<g>
		<defs>
			<rect id="SVGID_3_" x="-4" y="-24" width="457.5" height="1432"/>
		</defs>
		<clipPath id="SVGID_4_">
			<use xlink:href="#SVGID_3_"  overflow="visible"/>
		</clipPath>
		<line clip-path="url(#SVGID_4_)" fill="none" stroke="#A18200" x1="108" y1="-24" x2="108" y2="1380"/>
	</g>
	<g>
		<defs>
			<rect id="SVGID_5_" x="-4" y="-24" width="457.5" height="1432"/>
		</defs>
		<clipPath id="SVGID_6_">
			<use xlink:href="#SVGID_5_"  overflow="visible"/>
		</clipPath>
		<line clip-path="url(#SVGID_6_)" fill="none" stroke="#A18200" x1="171" y1="-15" x2="171" y2="1408"/>
	</g>
	<g>
		<defs>
			<rect id="SVGID_7_" x="-4" y="-24" width="457.5" height="1432"/>
		</defs>
		<clipPath id="SVGID_8_">
			<use xlink:href="#SVGID_7_"  overflow="visible"/>
		</clipPath>
		<rect x="-3.5" y="833.5" clip-path="url(#SVGID_8_)" fill="none" stroke="#A18200" width="103" height="444"/>
	</g>
	<g>
		<defs>
			<rect id="SVGID_9_" x="-4" y="-24" width="457.5" height="1432"/>
		</defs>
		<clipPath id="SVGID_10_">
			<use xlink:href="#SVGID_9_"  overflow="visible"/>
		</clipPath>
		<circle clip-path="url(#SVGID_10_)" fill="none" stroke="#A18200" cx="89" cy="848" r="3.5"/>
	</g>
	<g>
		<defs>
			<rect id="SVGID_11_" x="-4" y="-24" width="457.5" height="1432"/>
		</defs>
		<clipPath id="SVGID_12_">
			<use xlink:href="#SVGID_11_"  overflow="visible"/>
		</clipPath>
		<circle clip-path="url(#SVGID_12_)" fill="none" stroke="#A18200" cx="93" cy="1059.5" r="3.5"/>
	</g>
	<g>
		<defs>
			<rect id="SVGID_13_" x="-4" y="-24" width="457.5" height="1432"/>
		</defs>
		<clipPath id="SVGID_14_">
			<use xlink:href="#SVGID_13_"  overflow="visible"/>
		</clipPath>
		<circle clip-path="url(#SVGID_14_)" fill="none" stroke="#A18200" cx="93" cy="1265" r="3.5"/>
	</g>
	<g>
		<defs>
			<rect id="SVGID_15_" x="-4" y="-24" width="457.5" height="1432"/>
		</defs>
		<clipPath id="SVGID_16_">
			<use xlink:href="#SVGID_15_"  overflow="visible"/>
		</clipPath>
		<circle clip-path="url(#SVGID_16_)" fill="none" stroke="#A18200" cx="13" cy="1265" r="3.5"/>
	</g>
	<g>
		<defs>
			<rect id="SVGID_17_" x="-4" y="-24" width="457.5" height="1432"/>
		</defs>
		<clipPath id="SVGID_18_">
			<use xlink:href="#SVGID_17_"  overflow="visible"/>
		</clipPath>
		<circle clip-path="url(#SVGID_18_)" fill="none" stroke="#A18200" cx="13" cy="1059.5" r="3.5"/>
	</g>
	<g>
		<defs>
			<rect id="SVGID_19_" x="-4" y="-24" width="457.5" height="1432"/>
		</defs>
		<clipPath id="SVGID_20_">
			<use xlink:href="#SVGID_19_"  overflow="visible"/>
		</clipPath>
		<circle clip-path="url(#SVGID_20_)" fill="none" stroke="#A18200" cx="13" cy="848" r="3.5"/>
	</g>
	<g>
		<defs>
			<rect id="SVGID_21_" x="-4" y="-24" width="457.5" height="1432"/>
		</defs>
		<clipPath id="SVGID_22_">
			<use xlink:href="#SVGID_21_"  overflow="visible"/>
		</clipPath>
		
			<rect x="255.5" y="493.5" clip-path="url(#SVGID_22_)" fill="none" stroke="#A18200" stroke-width="2" stroke-linecap="round" width="197" height="194"/>
	</g>
</g>
<line fill="none" stroke="#A18200" x1="263" y1="500" x2="263" y2="688"/>
<g>
	<g>
		<defs>
			<rect id="SVGID_23_" x="-4" y="-24" width="457.5" height="1432"/>
		</defs>
		<clipPath id="SVGID_24_">
			<use xlink:href="#SVGID_23_"  overflow="visible"/>
		</clipPath>
		<line clip-path="url(#SVGID_24_)" fill="none" stroke="#A18200" x1="263" y1="500" x2="453" y2="500"/>
	</g>
</g>
<g>
	<g>
		<defs>
			<rect id="SVGID_25_" x="-4" y="-24" width="457.5" height="1432"/>
		</defs>
		<clipPath id="SVGID_26_">
			<use xlink:href="#SVGID_25_"  overflow="visible"/>
		</clipPath>
		<circle clip-path="url(#SVGID_26_)" fill="none" stroke="#A18200" cx="317" cy="532" r="6.5"/>
	</g>
</g>
<polygon fill="none" stroke="#A18200" points="302.5,542.5 302.5,573.9 309,574 309,602.5 325.5,602.5 325,574 332.5,573.7 
	332.5,542.5 "/>
<g>
	<g>
		<defs>
			<rect id="SVGID_27_" x="-4" y="-24" width="457.5" height="1432"/>
		</defs>
		<clipPath id="SVGID_28_">
			<use xlink:href="#SVGID_27_"  overflow="visible"/>
		</clipPath>
		<path clip-path="url(#SVGID_28_)" fill="none" stroke="#A18200" stroke-linecap="round" d="M413.3,590.5l-24.7-24.7l-23-0.2v-8h20
			v-4h-20v-15.2c0.5,0.1,1,0.2,1.5,0.2c3.6,0,6.5-2.9,6.5-6.5s-2.9-6.5-6.5-6.5s-6.5,2.9-6.5,6.5c0,1.3,0.4,2.4,1,3.4v18.1v4v8v4h4
			h21.2l23.8,23.8L413.3,590.5z"/>
	</g>
	<g>
		<defs>
			<rect id="SVGID_29_" x="-4" y="-24" width="457.5" height="1432"/>
		</defs>
		<clipPath id="SVGID_30_">
			<use xlink:href="#SVGID_29_"  overflow="visible"/>
		</clipPath>
		<path clip-path="url(#SVGID_30_)" fill="none" stroke="#A18200" d="M358.5,559.3c-8.8,3.6-15,12.2-15,22.2c0,13.3,10.7,24,24,24
			c12.2,0,22.3-9.2,23.8-21h-5.1c-1.6,8.5-9.1,15-18.2,15c-10.2,0-18.5-8.3-18.5-18.5c0-6.7,3.6-12.6,9-15.9L358.5,559.3
			L358.5,559.3z"/>
	</g>
</g>
<path fill="none" stroke="#A18200" d="M384.3,648v-18.8h-3.8v12.1l-7.4-12.1h-4.7V648h3.9v-13.3l8.1,13.3H384.3z M350.2,648h15.4
	v-3.7h-11.4v-4.1h9.6v-3.5h-9.6v-4h10.9v-3.5h-15V648H350.2z M342.5,634.3V648h3.8v-18.8h-5.5l-4,12.3h-0.2l-3.9-12.3H327V648h3.8
	v-13.6l4.4,13.6h2.7L342.5,634.3z"/>
</svg>
