<?xml version="1.0" encoding="utf-8"?>
<!-- Generator: Adobe Illustrator 18.0.0, SVG Export Plug-In . SVG Version: 6.00 Build 0)  -->
<!DOCTYPE svg PUBLIC "-//W3C//DTD SVG 1.1//EN" "http://www.w3.org/Graphics/SVG/1.1/DTD/svg11.dtd">
<svg version="1.1" id="Layer_1" xmlns="http://www.w3.org/2000/svg" xmlns:xlink="http://www.w3.org/1999/xlink" x="0px" y="0px"
	 viewBox="0 0 750 1334" enable-background="new 0 0 750 1334" xml:space="preserve">
<polygon fill="#65FF00" points="251.2,299.1 414.2,291.1 414.2,448.1 251.2,456.1 "/>
<line fill="none" stroke="#A18200" stroke-width="2" x1="-3.3" y1="787.6" x2="113.7" y2="849.6"/>
<line fill="none" stroke="#A18200" stroke-width="2" x1="114.5" y1="1059.6" x2="220.7" y2="1155.6"/>
<line fill="none" stroke="#A18200" stroke-width="2" x1="221.1" y1="1156" x2="426.7" y2="1093.1"/>
<line fill="none" stroke="#A18200" stroke-width="2" x1="427.4" y1="1029.7" x2="614.6" y2="1143.6"/>
<line fill="none" stroke="#A18200" stroke-width="2" x1="615.7" y1="-14.4" x2="615.7" y2="1319.6"/>
<line fill="none" stroke="#A18200" stroke-width="2" x1="615.2" y1="1319.6" x2="677.7" y2="1366.6"/>
<line fill="none" stroke="#A18200" x1="33.7" y1="806.6" x2="26.7" y2="61.6"/>
<line fill="none" stroke="#A18200" x1="26.2" y1="61.6" x2="106.7" y2="16.6"/>
<line fill="none" stroke="#A18200" stroke-width="2" x1="107" y1="16.6" x2="113.7" y2="1058.9"/>
<line fill="none" stroke="#A18200" x1="221.4" y1="1156.3" x2="220.4" y2="-23.4"/>
<line fill="none" stroke="#A18200" stroke-width="2" x1="430.7" y1="7.6" x2="426.7" y2="1092.1"/>
<polygon fill="none" stroke="#A18200" points="673.2,103.1 673.2,813.1 813.7,837.6 828.7,54.6 "/>
<g>
	<g>
		<defs>
			<rect id="SVGID_1_" x="-266.3" y="-26.4" width="1109.5" height="1459.2"/>
		</defs>
		<clipPath id="SVGID_2_">
			<use xlink:href="#SVGID_1_"  overflow="visible"/>
		</clipPath>
		<polygon clip-path="url(#SVGID_2_)" fill="none" stroke="#A18200" points="687.2,111.8 687.2,793.3 827.7,816 842.7,66.9 		"/>
	</g>
</g>
<line fill="none" stroke="#A18200" x1="686.7" y1="234.6" x2="767.7" y2="231.6"/>
<line fill="none" stroke="#A18200" x1="686.7" y1="345.6" x2="767.7" y2="348.6"/>
<line fill="none" stroke="#A18200" x1="686.7" y1="458.6" x2="767.8" y2="462.6"/>
<line fill="none" stroke="#A18200" x1="686.7" y1="566.5" x2="767.7" y2="577.6"/>
<line fill="none" stroke="#A18200" x1="686.7" y1="674.6" x2="767.8" y2="686.7"/>
<g>
	<g>
		<defs>
			<rect id="SVGID_3_" x="-266.3" y="-26.4" width="1109.5" height="1459.2"/>
		</defs>
		<clipPath id="SVGID_4_">
			<use xlink:href="#SVGID_3_"  overflow="visible"/>
		</clipPath>
		<circle clip-path="url(#SVGID_4_)" fill="none" stroke="#A18200" cx="706.7" cy="182.6" r="9.5"/>
	</g>
	<g>
		<defs>
			<rect id="SVGID_5_" x="-266.3" y="-26.4" width="1109.5" height="1459.2"/>
		</defs>
		<clipPath id="SVGID_6_">
			<use xlink:href="#SVGID_5_"  overflow="visible"/>
		</clipPath>
		<circle clip-path="url(#SVGID_6_)" fill="none" stroke="#A18200" cx="708.7" cy="290.6" r="9.5"/>
	</g>
	<g>
		<defs>
			<rect id="SVGID_7_" x="-266.3" y="-26.4" width="1109.5" height="1459.2"/>
		</defs>
		<clipPath id="SVGID_8_">
			<use xlink:href="#SVGID_7_"  overflow="visible"/>
		</clipPath>
		<circle clip-path="url(#SVGID_8_)" fill="none" stroke="#A18200" cx="708.7" cy="403.6" r="9.5"/>
	</g>
	<g>
		<defs>
			<rect id="SVGID_9_" x="-266.3" y="-26.4" width="1109.5" height="1459.2"/>
		</defs>
		<clipPath id="SVGID_10_">
			<use xlink:href="#SVGID_9_"  overflow="visible"/>
		</clipPath>
		<circle clip-path="url(#SVGID_10_)" fill="none" stroke="#A18200" cx="708.7" cy="517.6" r="9.5"/>
	</g>
	<g>
		<defs>
			<rect id="SVGID_11_" x="-266.3" y="-26.4" width="1109.5" height="1459.2"/>
		</defs>
		<clipPath id="SVGID_12_">
			<use xlink:href="#SVGID_11_"  overflow="visible"/>
		</clipPath>
		<circle clip-path="url(#SVGID_12_)" fill="none" stroke="#A18200" cx="708.7" cy="626.1" r="9.5"/>
	</g>
	<g>
		<defs>
			<rect id="SVGID_13_" x="-266.3" y="-26.4" width="1109.5" height="1459.2"/>
		</defs>
		<clipPath id="SVGID_14_">
			<use xlink:href="#SVGID_13_"  overflow="visible"/>
		</clipPath>
		<circle clip-path="url(#SVGID_14_)" fill="none" stroke="#A18200" cx="708.7" cy="740.5" r="9.5"/>
	</g>
</g>
<polygon fill="none" stroke="#A18200" points="251.2,299.1 251.2,456.1 414.2,448.1 414.2,291.1 "/>
<polygon fill="none" stroke="#A18200" points="281.4,462.1 281.4,619.1 381.4,614.1 381.4,457.1 "/>
<g>
	<g>
		<defs>
			<rect id="SVGID_15_" x="-266.3" y="-26.4" width="1109.5" height="1459.2"/>
		</defs>
		<clipPath id="SVGID_16_">
			<use xlink:href="#SVGID_15_"  overflow="visible"/>
		</clipPath>
		<circle clip-path="url(#SVGID_16_)" fill="none" stroke="#A18200" cx="260.7" cy="311.6" r="2.5"/>
	</g>
	<g>
		<defs>
			<rect id="SVGID_17_" x="-266.3" y="-26.4" width="1109.5" height="1459.2"/>
		</defs>
		<clipPath id="SVGID_18_">
			<use xlink:href="#SVGID_17_"  overflow="visible"/>
		</clipPath>
		<circle clip-path="url(#SVGID_18_)" fill="none" stroke="#A18200" cx="406.7" cy="303.6" r="2.5"/>
	</g>
	<g>
		<defs>
			<rect id="SVGID_19_" x="-266.3" y="-26.4" width="1109.5" height="1459.2"/>
		</defs>
		<clipPath id="SVGID_20_">
			<use xlink:href="#SVGID_19_"  overflow="visible"/>
		</clipPath>
		<circle clip-path="url(#SVGID_20_)" fill="none" stroke="#A18200" cx="260.7" cy="445.1" r="2.5"/>
	</g>
	<g>
		<defs>
			<rect id="SVGID_21_" x="-266.3" y="-26.4" width="1109.5" height="1459.2"/>
		</defs>
		<clipPath id="SVGID_22_">
			<use xlink:href="#SVGID_21_"  overflow="visible"/>
		</clipPath>
		<circle clip-path="url(#SVGID_22_)" fill="none" stroke="#A18200" cx="406.7" cy="437.1" r="2.5"/>
	</g>
</g>
</svg>
