<?xml version="1.0" encoding="utf-8"?>
<!-- Generator: Adobe Illustrator 18.0.0, SVG Export Plug-In . SVG Version: 6.00 Build 0)  -->
<!DOCTYPE svg PUBLIC "-//W3C//DTD SVG 1.1//EN" "http://www.w3.org/Graphics/SVG/1.1/DTD/svg11.dtd">
<svg version="1.1" id="Layer_1" xmlns="http://www.w3.org/2000/svg" xmlns:xlink="http://www.w3.org/1999/xlink" x="0px" y="0px"
	 viewBox="0 0 750 1334" enable-background="new 0 0 750 1334" xml:space="preserve">
<polygon fill="#65FF00" points="418.5,313 502.5,327 502.5,384 418.5,377 "/>
<g>
	<g>
		<defs>
			<rect id="SVGID_1_" x="165" y="312.4" width="602" height="1064.1"/>
		</defs>
		<clipPath id="SVGID_2_">
			<use xlink:href="#SVGID_1_"  overflow="visible"/>
		</clipPath>
		<g clip-path="url(#SVGID_2_)">
			<g>
				<defs>
					<rect id="SVGID_3_" x="165" y="312.4" width="602" height="1064.1"/>
				</defs>
				<defs>
					<rect id="SVGID_4_" x="165" y="312.4" width="602" height="1064.1"/>
				</defs>
				<defs>
					<rect id="SVGID_5_" x="165" y="312.4" width="602" height="1064.1"/>
				</defs>
				<clipPath id="SVGID_6_">
					<use xlink:href="#SVGID_3_"  overflow="visible"/>
				</clipPath>
				<clipPath id="SVGID_7_" clip-path="url(#SVGID_6_)">
					<use xlink:href="#SVGID_4_"  overflow="visible"/>
				</clipPath>
				<clipPath id="SVGID_8_" clip-path="url(#SVGID_7_)">
					<use xlink:href="#SVGID_5_"  overflow="visible"/>
				</clipPath>
				
					<line clip-path="url(#SVGID_8_)" fill="none" stroke="#A18200" stroke-width="2" stroke-linecap="round" x1="166" y1="1375.5" x2="766" y2="991.5"/>
				<polygon clip-path="url(#SVGID_8_)" fill="none" stroke="#A18200" stroke-linecap="round" points="418.5,313 418.5,377 
					502.5,384 502.5,327 				"/>
				
					<line clip-path="url(#SVGID_8_)" fill="none" stroke="#A18200" stroke-linecap="round" x1="421" y1="313.4" x2="421" y2="374.5"/>
			</g>
			<g>
				<defs>
					<rect id="SVGID_9_" x="165" y="312.4" width="602" height="1064.1"/>
				</defs>
				<clipPath id="SVGID_10_">
					<use xlink:href="#SVGID_9_"  overflow="visible"/>
				</clipPath>
				
					<line clip-path="url(#SVGID_10_)" fill="none" stroke="#A18200" stroke-linecap="round" x1="420.5" y1="374.5" x2="502.5" y2="381.5"/>
			</g>
			<g>
				<defs>
					<rect id="SVGID_11_" x="165" y="312.4" width="602" height="1064.1"/>
				</defs>
				<clipPath id="SVGID_12_">
					<use xlink:href="#SVGID_11_"  overflow="visible"/>
				</clipPath>
				<g clip-path="url(#SVGID_12_)">
					<defs>
						<rect id="SVGID_13_" x="165" y="312.4" width="602" height="1064.1"/>
					</defs>
					<clipPath id="SVGID_14_">
						<use xlink:href="#SVGID_13_"  overflow="visible"/>
					</clipPath>
					<g clip-path="url(#SVGID_14_)">
						<g opacity="0.3">
							<g>
								<defs>
									<rect id="SVGID_15_" x="411.3" y="326" width="100.4" height="20"/>
								</defs>
								<clipPath id="SVGID_16_">
									<use xlink:href="#SVGID_15_"  overflow="visible"/>
								</clipPath>
								
									<line clip-path="url(#SVGID_16_)" fill="none" stroke="#A18200" stroke-width="3" x1="420.5" y1="334.5" x2="502.5" y2="343.5"/>
							</g>
						</g>
					</g>
				</g>
				<g clip-path="url(#SVGID_12_)">
					<defs>
						<rect id="SVGID_17_" x="165" y="312.4" width="602" height="1064.1"/>
					</defs>
					<clipPath id="SVGID_18_">
						<use xlink:href="#SVGID_17_"  overflow="visible"/>
					</clipPath>
				</g>
				<g clip-path="url(#SVGID_12_)">
					<defs>
						<rect id="SVGID_19_" x="165" y="312.4" width="602" height="1064.1"/>
					</defs>
					<clipPath id="SVGID_20_">
						<use xlink:href="#SVGID_19_"  overflow="visible"/>
					</clipPath>
					<g clip-path="url(#SVGID_20_)">
						<g>
							<defs>
								<rect id="SVGID_21_" x="165" y="312.4" width="602" height="1064.1"/>
							</defs>
							<clipPath id="SVGID_22_">
								<use xlink:href="#SVGID_21_"  overflow="visible"/>
							</clipPath>
							<path clip-path="url(#SVGID_22_)" fill="none" stroke="#A18200" stroke-linecap="round" d="M477.1,335.4h5.4v-2h-4v-2.2h3.4
								v-1.9h-3.4v-2.1h3.9v-1.9h-5.3V335.4z M474.9,331.8c-0.3,1.5-0.9,2-1.7,2c-1.1,0-1.7-1.4-1.7-3.4c0-2.2,0.7-3.5,1.7-3.5
								c0.8,0,1.4,0.9,1.6,2.1l1.2-0.9c-0.4-1.9-1.4-3.1-2.7-3.1c-2,0-3.2,2.2-3.2,5.4c0,3.2,1.2,5.3,3.2,5.3c1.4,0,2.5-1.1,2.9-3.1
								L474.9,331.8z M467.5,335.4h1.4v-10.1h-1.4V335.4z M463,327.1v8.3h1.4v-8.3h2.2v-1.8h-5.7v1.8H463z M455.6,330.4
								c0-2.1,0.6-3.5,1.8-3.5c1.2,0,1.7,1.6,1.7,3.5c0,2.3-0.7,3.5-1.7,3.5C456.2,333.8,455.6,332.4,455.6,330.4z M454.2,330.4
								c0,3.2,1.3,5.3,3.2,5.3c1.8,0,3.2-1.9,3.2-5.3c0-3.2-1.3-5.4-3.2-5.4S454.2,327.1,454.2,330.4z M453.1,335.4v-10.1h-1.3v6.5
								l-2.6-6.5h-1.6v10.1h1.4v-7.2l2.8,7.2H453.1z"/>
						</g>
						<g>
							<defs>
								<rect id="SVGID_23_" x="165" y="312.4" width="602" height="1064.1"/>
							</defs>
							<clipPath id="SVGID_24_">
								<use xlink:href="#SVGID_23_"  overflow="visible"/>
							</clipPath>
							<path clip-path="url(#SVGID_24_)" fill="none" stroke="#A18200" stroke-linecap="round" d="M433.6,355.5l0.1-5.5h-3.3
								l0.1,5.5l0.7,4.4h1.6L433.6,355.5z M430.5,364.6h3.2v-2.8h-3.2V364.6z"/>
						</g>
						<g>
							<defs>
								<rect id="SVGID_25_" x="165" y="312.4" width="602" height="1064.1"/>
							</defs>
							<clipPath id="SVGID_26_">
								<use xlink:href="#SVGID_25_"  overflow="visible"/>
							</clipPath>
							<polygon clip-path="url(#SVGID_26_)" fill="none" stroke="#A18200" stroke-linecap="round" points="424.7,367.1 440.3,369.1 
								432.3,340.5 							"/>
						</g>
					</g>
				</g>
			</g>
		</g>
	</g>
</g>
</svg>
