<?xml version="1.0" encoding="utf-8"?>
<!-- Generator: Adobe Illustrator 18.0.0, SVG Export Plug-In . SVG Version: 6.00 Build 0)  -->
<!DOCTYPE svg PUBLIC "-//W3C//DTD SVG 1.1//EN" "http://www.w3.org/Graphics/SVG/1.1/DTD/svg11.dtd">
<svg version="1.1" id="Layer_1" xmlns="http://www.w3.org/2000/svg" xmlns:xlink="http://www.w3.org/1999/xlink" x="0px" y="0px"
	 viewBox="0 0 750 1334" enable-background="new 0 0 750 1334" xml:space="preserve">
<rect x="308.6" y="667.2" fill="#65FF00" width="13" height="93.3"/>
<line fill="none" stroke="#A18200" x1="277.7" y1="-19" x2="280.9" y2="1279"/>
<line fill="none" stroke="#A18200" x1="317.7" y1="-17" x2="317" y2="188.4"/>
<line fill="none" stroke="#A18200" stroke-width="2" x1="-0.3" y1="1252" x2="756.7" y2="1323"/>
<rect x="130.2" y="226.5" fill="none" stroke="#A18200" width="96" height="75"/>
<g>
	<g>
		<defs>
			<rect id="SVGID_1_" x="-266.3" y="-125.2" width="1094.4" height="1459.2"/>
		</defs>
		<clipPath id="SVGID_2_">
			<use xlink:href="#SVGID_1_"  overflow="visible"/>
		</clipPath>
		<path clip-path="url(#SVGID_2_)" fill="none" stroke="#A18200" d="M206.2,257c0-4.7-4.1-7.5-9.4-7.5c-5.3,0-8.9,2.8-9.9,7.1
			l4.3,1.8c0.4-2.3,2.2-4.3,5.5-4.3c2.5,0,4.2,1.2,4.2,3.2c0,1.5-1.2,2.8-3.6,3c-0.8,0.1-2.2,0.1-3.2,0v4.5c1-0.1,2.6-0.1,3.3,0
			c2.5,0.2,3.8,1.3,3.8,3c0,2.1-1.8,3.5-4.9,3.5c-3.2,0-5.2-2.1-5.6-4.5l-4.6,1.6c0.9,4.2,4.9,7.5,10.3,7.5c5.8,0,10.2-3,10.2-8.2
			c0-3-2-4.7-3.9-5.4C204.4,261.4,206.2,259.7,206.2,257z M169.4,262.6c0-5.1,1.2-8.7,4.9-8.7c3.6,0,4.9,3.6,4.9,8.7
			s-1.3,8.8-4.9,8.8C170.6,271.4,169.4,267.9,169.4,262.6z M164.3,262.6c0,8.1,3.3,13.2,10,13.2c6.3,0,10-5.3,10-13.2
			c0-8.2-3.7-13.2-10-13.2C168,249.4,164.3,254.4,164.3,262.6z M153.6,275.1h5v-25h-3.7c-0.7,2.6-2.7,4-5.5,4.4v4.1l4.1-1.4
			L153.6,275.1L153.6,275.1z"/>
	</g>
</g>
<rect x="309.2" y="190.5" fill="none" stroke="#A18200" width="13" height="93"/>
<line fill="none" stroke="#A18200" x1="316.7" y1="284.3" x2="315.5" y2="667.3"/>
<rect x="308.6" y="667.5" fill="none" stroke="#A18200" width="13" height="93"/>
<rect x="307.6" y="1089.5" fill="none" stroke="#A18200" width="13" height="93"/>
<line fill="none" stroke="#A18200" x1="313.8" y1="1182.8" x2="313.5" y2="1281"/>
<line fill="none" stroke="#A18200" x1="315.2" y1="760.6" x2="314.1" y2="1089.8"/>
<g>
	<g>
		<defs>
			<rect id="SVGID_3_" x="-266.3" y="-125.2" width="1094.4" height="1459.2"/>
		</defs>
		<clipPath id="SVGID_4_">
			<use xlink:href="#SVGID_3_"  overflow="visible"/>
		</clipPath>
		<path clip-path="url(#SVGID_4_)" fill="#65FF00" stroke="#999900" d="M314.6,668.8c3.9,0,7-0.7,7-1.6c0-0.9-3.1-1.6-7-1.6
			s-6,0.7-6,1.6C308.6,668,310.7,668.8,314.6,668.8"/>
	</g>
</g>
</svg>
