<?xml version="1.0" encoding="utf-8"?>
<!-- Generator: Adobe Illustrator 18.0.0, SVG Export Plug-In . SVG Version: 6.00 Build 0)  -->
<!DOCTYPE svg PUBLIC "-//W3C//DTD SVG 1.1//EN" "http://www.w3.org/Graphics/SVG/1.1/DTD/svg11.dtd">
<svg version="1.1" id="Layer_1" xmlns="http://www.w3.org/2000/svg" xmlns:xlink="http://www.w3.org/1999/xlink" x="0px" y="0px"
	 viewBox="0 0 750 1334" enable-background="new 0 0 750 1334" xml:space="preserve">
<polygon fill="#65FF00" points="373.2,521.8 405,521.8 405.6,798.6 373.2,798.8 "/>
<g>
	<defs>
		<rect id="SVGID_1_" x="-137.2" y="-111.7" width="1067" height="1499.3"/>
	</defs>
	<clipPath id="SVGID_2_">
		<use xlink:href="#SVGID_1_"  overflow="visible"/>
	</clipPath>
	<line clip-path="url(#SVGID_2_)" fill="none" stroke="#A18200" stroke-width="2" x1="345.8" y1="-24.7" x2="345.8" y2="1352.3"/>
</g>
<g>
	<defs>
		<rect id="SVGID_3_" x="-137.2" y="-111.7" width="1067" height="1499.3"/>
	</defs>
	<clipPath id="SVGID_4_">
		<use xlink:href="#SVGID_3_"  overflow="visible"/>
	</clipPath>
	<g clip-path="url(#SVGID_4_)">
		<g>
			<defs>
				<rect id="SVGID_5_" x="-137.2" y="-111.7" width="1067" height="1499.3"/>
			</defs>
			<clipPath id="SVGID_6_">
				<use xlink:href="#SVGID_5_"  overflow="visible"/>
			</clipPath>
			<line clip-path="url(#SVGID_6_)" fill="none" stroke="#A18200" stroke-width="2" x1="395.8" y1="-111.7" x2="395.8" y2="522.1"/>
		</g>
		<g>
			<defs>
				<rect id="SVGID_7_" x="-137.2" y="-111.7" width="1067" height="1499.3"/>
			</defs>
			<clipPath id="SVGID_8_">
				<use xlink:href="#SVGID_7_"  overflow="visible"/>
			</clipPath>
			<line clip-path="url(#SVGID_8_)" fill="none" stroke="#A18200" stroke-width="2" x1="395.2" y1="954.3" x2="415.8" y2="1343.3"/>
		</g>
		<g>
			<defs>
				<rect id="SVGID_9_" x="-137.2" y="-111.7" width="1067" height="1499.3"/>
			</defs>
			<clipPath id="SVGID_10_">
				<use xlink:href="#SVGID_9_"  overflow="visible"/>
			</clipPath>
			<rect x="373.2" y="521.8" clip-path="url(#SVGID_10_)" fill="none" stroke="#A18200" width="31.8" height="277"/>
		</g>
		<g>
			<defs>
				<rect id="SVGID_11_" x="-137.2" y="-111.7" width="1067" height="1499.3"/>
			</defs>
			<clipPath id="SVGID_12_">
				<use xlink:href="#SVGID_11_"  overflow="visible"/>
			</clipPath>
			<g clip-path="url(#SVGID_12_)">
				<g>
					<defs>
						<rect id="SVGID_13_" x="-137.2" y="-111.7" width="1067" height="1499.3"/>
					</defs>
					<defs>
						<rect id="SVGID_14_" x="-137.2" y="-111.7" width="1067" height="1499.3"/>
					</defs>
					<defs>
						<rect id="SVGID_15_" x="-137.2" y="-111.7" width="1067" height="1499.3"/>
					</defs>
					<clipPath id="SVGID_16_">
						<use xlink:href="#SVGID_13_"  overflow="visible"/>
					</clipPath>
					<clipPath id="SVGID_17_" clip-path="url(#SVGID_16_)">
						<use xlink:href="#SVGID_14_"  overflow="visible"/>
					</clipPath>
					<clipPath id="SVGID_18_" clip-path="url(#SVGID_17_)">
						<use xlink:href="#SVGID_15_"  overflow="visible"/>
					</clipPath>
					<path clip-path="url(#SVGID_18_)" fill="none" stroke="#A18200" d="M382.9,521.8c0.8-5.3,5.2-13-0.5-13c-5.6,0-12.7-2.5-16,2
						c0,0-6.2,11.8-6.2,34.1c0,22.4,3.5,28.4,3.5,28.4c2.1,5.3,3.9,5,9.5,5v-17.6c-2.5,0.2-5,0.1-6.5-1.4c0,0,1-25,1-30
						c0-2.1,2.5-1.7,5.5-1.4v-6.1H382.9z"/>
					<path clip-path="url(#SVGID_18_)" fill="none" stroke="#A18200" d="M366.8,577.3c-6,72,6,104,6,104"/>
					<path clip-path="url(#SVGID_18_)" fill="none" stroke="#A18200" d="M384.8,509.3c-0.3-7,10-9,10-9"/>
				</g>
				<g>
					<defs>
						<rect id="SVGID_19_" x="-137.2" y="-111.7" width="1067" height="1499.3"/>
					</defs>
					<clipPath id="SVGID_20_">
						<use xlink:href="#SVGID_19_"  overflow="visible"/>
					</clipPath>
					
						<line clip-path="url(#SVGID_20_)" fill="none" stroke="#A18200" stroke-width="2" x1="379.8" y1="507.6" x2="379.8" y2="-7.7"/>
				</g>
				<g>
					<defs>
						<rect id="SVGID_21_" x="-137.2" y="-111.7" width="1067" height="1499.3"/>
					</defs>
					<clipPath id="SVGID_22_">
						<use xlink:href="#SVGID_21_"  overflow="visible"/>
					</clipPath>
					
						<line clip-path="url(#SVGID_22_)" fill="none" stroke="#A18200" stroke-width="2" x1="395.8" y1="798.1" x2="395.8" y2="954.3"/>
				</g>
				<g>
					<defs>
						<rect id="SVGID_23_" x="-137.2" y="-111.7" width="1067" height="1499.3"/>
					</defs>
					<clipPath id="SVGID_24_">
						<use xlink:href="#SVGID_23_"  overflow="visible"/>
					</clipPath>
					<g clip-path="url(#SVGID_24_)">
						<g>
							<defs>
								<rect id="SVGID_25_" x="-137.2" y="-111.7" width="1067" height="1499.3"/>
							</defs>
							<clipPath id="SVGID_26_">
								<use xlink:href="#SVGID_25_"  overflow="visible"/>
							</clipPath>
							<g clip-path="url(#SVGID_26_)">
								<g opacity="0.3">
									<g>
										<defs>
											<rect id="SVGID_27_" x="370.8" y="-6.7" width="35" height="523"/>
										</defs>
										<clipPath id="SVGID_28_">
											<use xlink:href="#SVGID_27_"  overflow="visible"/>
										</clipPath>
										<path clip-path="url(#SVGID_28_)" fill="#A18200" d="M395.8,499.8l1-505.5l-17,15v499.2c0,0,5,0.8,4.5,0.8
											C384.8,502.3,395.8,499.8,395.8,499.8"/>
									</g>
								</g>
								<g>
									<defs>
										<rect id="SVGID_29_" x="-137.2" y="-111.7" width="1067" height="1499.3"/>
									</defs>
									<clipPath id="SVGID_30_">
										<use xlink:href="#SVGID_29_"  overflow="visible"/>
									</clipPath>
									<g clip-path="url(#SVGID_30_)">
										<g opacity="0.3">
											<g>
												<defs>
													<rect id="SVGID_31_" x="369.6" y="797.6" width="35" height="34.5"/>
												</defs>
												<clipPath id="SVGID_32_">
													<use xlink:href="#SVGID_31_"  overflow="visible"/>
												</clipPath>
												<polygon clip-path="url(#SVGID_32_)" fill="#A18200" points="394.6,824.8 395.6,799.3 378.6,798.6 378.6,825.1 
																									"/>
											</g>
										</g>
									</g>
								</g>
								<g>
									<defs>
										<rect id="SVGID_33_" x="-137.2" y="-111.7" width="1067" height="1499.3"/>
									</defs>
									<clipPath id="SVGID_34_">
										<use xlink:href="#SVGID_33_"  overflow="visible"/>
									</clipPath>
									
										<line clip-path="url(#SVGID_34_)" fill="none" stroke="#A18200" stroke-width="2" x1="345.8" y1="824.3" x2="379.8" y2="824.3"/>
								</g>
								<g>
									<defs>
										<rect id="SVGID_35_" x="-137.2" y="-111.7" width="1067" height="1499.3"/>
									</defs>
									<clipPath id="SVGID_36_">
										<use xlink:href="#SVGID_35_"  overflow="visible"/>
									</clipPath>
									
										<line clip-path="url(#SVGID_36_)" fill="none" stroke="#A18200" stroke-width="2" x1="379.8" y1="824.8" x2="379.8" y2="798.1"/>
								</g>
								<g>
									<defs>
										<rect id="SVGID_37_" x="-137.2" y="-111.7" width="1067" height="1499.3"/>
									</defs>
									<clipPath id="SVGID_38_">
										<use xlink:href="#SVGID_37_"  overflow="visible"/>
									</clipPath>
								</g>
							</g>
						</g>
					</g>
				</g>
			</g>
		</g>
	</g>
</g>
</svg>
