<?xml version="1.0" encoding="utf-8"?>
<!-- Generator: Adobe Illustrator 18.0.0, SVG Export Plug-In . SVG Version: 6.00 Build 0)  -->
<!DOCTYPE svg PUBLIC "-//W3C//DTD SVG 1.1//EN" "http://www.w3.org/Graphics/SVG/1.1/DTD/svg11.dtd">
<svg version="1.1" id="Layer_1" xmlns="http://www.w3.org/2000/svg" xmlns:xlink="http://www.w3.org/1999/xlink" x="0px" y="0px"
	 viewBox="0 0 750 1334" enable-background="new 0 0 750 1334" xml:space="preserve">
<polygon fill="#65FF00" points="514.5,369.4 467.9,368.1 424.4,449.1 424.9,599 469.9,599.2 515.6,549.2 "/>
<line fill="none" stroke="#A18200" stroke-linecap="round" x1="407.5" y1="177.5" x2="394.7" y2="1342.5"/>
<rect x="-31" y="714" fill="none" stroke="#A18200" stroke-width="2" stroke-linecap="round" width="395" height="645"/>
<rect x="-61.5" y="746.5" fill="none" stroke="#A18200" stroke-width="2" stroke-linecap="round" width="395" height="645"/>
<g>
	<g>
		<defs>
			<rect id="SVGID_1_" x="-68.5" y="-121.5" width="791" height="1522"/>
		</defs>
		<clipPath id="SVGID_2_">
			<use xlink:href="#SVGID_1_"  overflow="visible"/>
		</clipPath>
		
			<rect x="-67.5" y="754.5" clip-path="url(#SVGID_2_)" fill="none" stroke="#A18200" stroke-width="2" stroke-linecap="round" width="395" height="645"/>
	</g>
</g>
<polygon fill="none" stroke="#A18200" stroke-width="2" stroke-linecap="round" points="476.5,-50.5 476,367.5 710.5,-52.5 647,-61 
	"/>
<g>
	<g>
		<defs>
			<rect id="SVGID_3_" x="-68.5" y="-121.5" width="791" height="1522"/>
		</defs>
		<clipPath id="SVGID_4_">
			<use xlink:href="#SVGID_3_"  overflow="visible"/>
		</clipPath>
		<polygon clip-path="url(#SVGID_4_)" fill="none" stroke="#A18200" stroke-linecap="round" points="487.7,-110.5 487.2,307.5 
			721.7,-112.5 658.2,-121 		"/>
	</g>
</g>
<polygon fill="none" stroke="#A18200" stroke-width="2" stroke-linecap="round" points="425,447.5 425,599 469.9,599.2 515.1,547.5 
	514.5,369.4 467.5,369.4 "/>
<line fill="none" stroke="#A18200" stroke-linecap="round" x1="424.5" y1="599.7" x2="470.1" y2="549.5"/>
<line fill="none" stroke="#A18200" stroke-linecap="round" x1="470.4" y1="549.2" x2="470.1" y2="369.4"/>
<line fill="none" stroke="#A18200" stroke-linecap="round" x1="470.9" y1="549.2" x2="515.6" y2="549.2"/>
<line fill="none" stroke="#A18200" x1="7.5" y1="107.5" x2="93.5" y2="117.5"/>
<g>
	<g>
		<defs>
			<rect id="SVGID_5_" x="-68.5" y="-121.5" width="791" height="1522"/>
		</defs>
		<clipPath id="SVGID_6_">
			<use xlink:href="#SVGID_5_"  overflow="visible"/>
		</clipPath>
		<path clip-path="url(#SVGID_6_)" fill="none" stroke="#A18200" stroke-width="2" stroke-linecap="round" d="M447.8,130.3
			c0-42.4-3.1-76.7-6.9-76.7c-0.6,0-1.2,0.9-1.8,2.6l-27.1,27L183.4,56.5c-6.7-1.4-13.9-2.2-21.3-2.2c-38.1,0-69,19.9-70,44.7H92
			l0.1,0.6c0,0.2,0,0.4,0,0.6c0,3.2,0.5,6.4,1.5,9.4l11.9,81.3C88.2,201.1,77,217.5,77,236c0,30.9,31.3,56,70,56s70-25.1,70-56
			c0-19.6-12.7-36.9-31.8-46.9l-5.5-37.3L412,176.4l26.9,27.5c0.6,2,1.3,3.1,1.9,3.1C444.7,207,447.8,172.7,447.8,130.3z"/>
	</g>
</g>
<line fill="none" stroke="#A18200" stroke-linecap="round" x1="408" y1="81.5" x2="468.5" y2="-34.5"/>
<g>
	<g>
		<defs>
			<rect id="SVGID_7_" x="-68.5" y="-121.5" width="791" height="1522"/>
		</defs>
		<clipPath id="SVGID_8_">
			<use xlink:href="#SVGID_7_"  overflow="visible"/>
		</clipPath>
		<path clip-path="url(#SVGID_8_)" fill="none" stroke="#A18200" stroke-linecap="round" d="M105,190l4,41h0.3c-0.2,1-0.3,2-0.3,3.1
			c0,13.9,17.2,25.1,38.5,25.1S191,248,191,234.1c0-1-0.1-2.1-0.3-3.1h0.3l-6-42"/>
	</g>
</g>
<path fill="none" stroke="#A18200" d="M457.8,456.1l4,76.6l2-0.1l-4-76.6l3.1-0.2l-0.6-10.6l-8.1,0.4l0.6,10.6L457.8,456.1z
	 M455.6,533.1l2-0.1l-4.6-87.2l-2,0.1L455.6,533.1z M446.1,533.6l2.3-0.1l0.3-30.2l3.4,30l2.3-0.1l-5.3-45l0.6-42.2l-2.3,0.1
	l-0.2,27.5l-3-27.3l-2.3,0.1l4.9,42.3L446.1,533.6z M437.8,534l7.7-0.4l-0.6-11.7l-5.7,0.3l-1.6-29.8l4.8-0.3l-0.6-10.8l-4.8,0.3
	l-1.3-25.6l5.5-0.3l-0.5-9.3l-7.5,0.4L437.8,534z"/>
</svg>
