<?xml version="1.0" encoding="utf-8"?>
<!-- Generator: Adobe Illustrator 18.0.0, SVG Export Plug-In . SVG Version: 6.00 Build 0)  -->
<!DOCTYPE svg PUBLIC "-//W3C//DTD SVG 1.1//EN" "http://www.w3.org/Graphics/SVG/1.1/DTD/svg11.dtd">
<svg version="1.1" id="Layer_1" xmlns="http://www.w3.org/2000/svg" xmlns:xlink="http://www.w3.org/1999/xlink" x="0px" y="0px"
	 viewBox="0 0 750 1334" enable-background="new 0 0 750 1334" xml:space="preserve">
<polygon fill="#65FF00" points="371.2,543.9 372.8,638.1 438.4,654 438.4,547.9 "/>
<g>
	<g>
		<defs>
			<rect id="SVGID_1_" x="-60" y="-31" width="680.8" height="1433"/>
		</defs>
		<clipPath id="SVGID_2_">
			<use xlink:href="#SVGID_1_"  overflow="visible"/>
		</clipPath>
		<line clip-path="url(#SVGID_2_)" fill="none" stroke="#A18200" x1="490.3" y1="-21" x2="490.3" y2="1402"/>
	</g>
	<g>
		<defs>
			<rect id="SVGID_3_" x="-60" y="-31" width="680.8" height="1433"/>
		</defs>
		<clipPath id="SVGID_4_">
			<use xlink:href="#SVGID_3_"  overflow="visible"/>
		</clipPath>
		<line clip-path="url(#SVGID_4_)" fill="none" stroke="#A18200" x1="546.1" y1="-31" x2="546.1" y2="1373"/>
	</g>
	<g>
		<defs>
			<rect id="SVGID_5_" x="-60" y="-31" width="680.8" height="1433"/>
		</defs>
		<clipPath id="SVGID_6_">
			<use xlink:href="#SVGID_5_"  overflow="visible"/>
		</clipPath>
		<polygon clip-path="url(#SVGID_6_)" fill="none" stroke="#A18200" points="620.3,781.5 620.3,1065.5 553.1,1042.5 553.1,758.5 		
			"/>
	</g>
	<g>
		<defs>
			<rect id="SVGID_7_" x="-60" y="-31" width="680.8" height="1433"/>
		</defs>
		<clipPath id="SVGID_8_">
			<use xlink:href="#SVGID_7_"  overflow="visible"/>
		</clipPath>
		<ellipse clip-path="url(#SVGID_8_)" fill="none" stroke="#A18200" cx="561.5" cy="773" rx="2.7" ry="3.5"/>
	</g>
	<g>
		<defs>
			<rect id="SVGID_9_" x="-60" y="-31" width="680.8" height="1433"/>
		</defs>
		<clipPath id="SVGID_10_">
			<use xlink:href="#SVGID_9_"  overflow="visible"/>
		</clipPath>
		<ellipse clip-path="url(#SVGID_10_)" fill="none" stroke="#A18200" cx="558.3" cy="893.5" rx="2.7" ry="3.5"/>
	</g>
	<g>
		<defs>
			<rect id="SVGID_11_" x="-60" y="-31" width="680.8" height="1433"/>
		</defs>
		<clipPath id="SVGID_12_">
			<use xlink:href="#SVGID_11_"  overflow="visible"/>
		</clipPath>
		<ellipse clip-path="url(#SVGID_12_)" fill="none" stroke="#A18200" cx="558.3" cy="1030" rx="2.7" ry="3.5"/>
	</g>
	<g>
		<defs>
			<rect id="SVGID_13_" x="-60" y="-31" width="680.8" height="1433"/>
		</defs>
		<clipPath id="SVGID_14_">
			<use xlink:href="#SVGID_13_"  overflow="visible"/>
		</clipPath>
		<ellipse clip-path="url(#SVGID_14_)" fill="none" stroke="#A18200" cx="607.1" cy="1053" rx="2.7" ry="3.5"/>
	</g>
	<g>
		<defs>
			<rect id="SVGID_15_" x="-60" y="-31" width="680.8" height="1433"/>
		</defs>
		<clipPath id="SVGID_16_">
			<use xlink:href="#SVGID_15_"  overflow="visible"/>
		</clipPath>
		<ellipse clip-path="url(#SVGID_16_)" fill="none" stroke="#A18200" cx="607.1" cy="916.5" rx="2.7" ry="3.5"/>
	</g>
	<g>
		<defs>
			<rect id="SVGID_17_" x="-60" y="-31" width="680.8" height="1433"/>
		</defs>
		<clipPath id="SVGID_18_">
			<use xlink:href="#SVGID_17_"  overflow="visible"/>
		</clipPath>
		<ellipse clip-path="url(#SVGID_18_)" fill="none" stroke="#A18200" cx="607.1" cy="796" rx="2.7" ry="3.5"/>
	</g>
	<g>
		<defs>
			<rect id="SVGID_19_" x="-60" y="-31" width="680.8" height="1433"/>
		</defs>
		<clipPath id="SVGID_20_">
			<use xlink:href="#SVGID_19_"  overflow="visible"/>
		</clipPath>
		<line clip-path="url(#SVGID_20_)" fill="none" stroke="#A18200" x1="495.2" y1="-21" x2="495.2" y2="1402"/>
	</g>
</g>
<polygon fill="none" stroke="#A18200" stroke-width="2" stroke-linecap="round" points="438.4,547.9 438.4,654 372.8,638.1 
	371.2,543.9 "/>
<line fill="none" stroke="#A18200" x1="434.6" y1="551.6" x2="434.6" y2="651.7"/>
<line fill="none" stroke="#A18200" x1="434.8" y1="551.8" x2="370.5" y2="547.8"/>
<g>
	<g>
		<defs>
			<rect id="SVGID_21_" x="-60" y="-31" width="680.8" height="1433"/>
		</defs>
		<clipPath id="SVGID_22_">
			<use xlink:href="#SVGID_21_"  overflow="visible"/>
		</clipPath>
		<ellipse clip-path="url(#SVGID_22_)" fill="none" stroke="#A18200" cx="387.3" cy="565" rx="2.4" ry="3"/>
	</g>
</g>
<polygon fill="none" stroke="#A18200" points="381.7,570.5 381.7,583.5 384.2,583.6 381.5,592.3 384.2,592.3 384.2,600.1 
	390.6,600.1 390.5,592.3 393.1,592.3 390.4,583.6 393.2,583.4 393.2,570.5 "/>
<g>
	<g>
		<defs>
			<rect id="SVGID_23_" x="-60" y="-31" width="680.8" height="1433"/>
		</defs>
		<clipPath id="SVGID_24_">
			<use xlink:href="#SVGID_23_"  overflow="visible"/>
		</clipPath>
		<path clip-path="url(#SVGID_24_)" fill="none" stroke="#A18200" stroke-linecap="round" d="M426.3,593.9l-9.8-12.2l-9.1-0.1v-3.9
			h7.9v-2h-7.9v-7.5c0.2,0.1,0.4,0.1,0.6,0.1c1.4,0,2.6-1.4,2.6-3.2s-1.2-3.2-2.6-3.2s-2.6,1.4-2.6,3.2c0,0.6,0.1,1.2,0.4,1.7v8.9v2
			v3.9v2h1.6h8.4l9.4,11.7L426.3,593.9z"/>
	</g>
	<g>
		<defs>
			<rect id="SVGID_25_" x="-60" y="-31" width="680.8" height="1433"/>
		</defs>
		<clipPath id="SVGID_26_">
			<use xlink:href="#SVGID_25_"  overflow="visible"/>
		</clipPath>
		<path clip-path="url(#SVGID_26_)" fill="none" stroke="#A18200" d="M404.3,579.1c-3.5,1.7-5.9,5.9-5.9,10.8
			c0,6.5,4.3,11.7,9.5,11.7c4.8,0,8.8-4.5,9.4-10.2h-2c-0.6,4.2-3.6,7.3-7.2,7.3c-4,0-7.3-4-7.3-9c0-3.3,1.4-6.1,3.6-7.7v-2.9H404.3
			z"/>
	</g>
	<g>
		<defs>
			<rect id="SVGID_27_" x="-60" y="-31" width="680.8" height="1433"/>
		</defs>
		<clipPath id="SVGID_28_">
			<use xlink:href="#SVGID_27_"  overflow="visible"/>
		</clipPath>
		<path clip-path="url(#SVGID_28_)" fill="none" stroke="#A18200" d="M424.4,622v-9h-1.5v5.8l-3-5.8H418v9h1.6v-6.3l3.3,6.3H424.4z
			 M410.6,622h6.2v-1.7h-4.6v-2h3.9v-1.7h-3.9v-1.9h4.4V613h-6V622z M407.5,615.5v6.5h1.5v-9h-2.2l-1.6,5.9h-0.1l-1.6-5.9h-2.3v9
			h1.5v-6.5l1.8,6.5h1.1L407.5,615.5z M394.4,617.5c0-1.8,0.7-3.1,2-3.1c1.4,0,2,1.4,2,3.1c0,2.1-0.8,3.1-2,3.1
			C395,620.6,394.4,619.3,394.4,617.5z M392.7,617.5c0,2.9,1.4,4.7,3.7,4.7c2.1,0,3.6-1.7,3.6-4.7c0-2.9-1.5-4.7-3.6-4.7
			C394.2,612.8,392.7,614.7,392.7,617.5z M386.4,613l-1.3,6.2l-1.3-6.2h-1.7l2.2,9h1.6l1.3-6.5h0.1l1.3,6.5h1.6l2.2-9h-1.7l-1.3,6.2
			l-1.3-6.2H386.4z"/>
	</g>
	<g>
		<defs>
			<rect id="SVGID_29_" x="-60" y="-31" width="680.8" height="1433"/>
		</defs>
		<clipPath id="SVGID_30_">
			<use xlink:href="#SVGID_29_"  overflow="visible"/>
		</clipPath>
		<line clip-path="url(#SVGID_30_)" fill="none" stroke="#A18200" stroke-width="2" x1="-59.2" y1="730.5" x2="359.8" y2="1365.5"/>
	</g>
</g>
</svg>
