<?xml version="1.0" encoding="utf-8"?>
<!-- Generator: Adobe Illustrator 18.0.0, SVG Export Plug-In . SVG Version: 6.00 Build 0)  -->
<!DOCTYPE svg PUBLIC "-//W3C//DTD SVG 1.1//EN" "http://www.w3.org/Graphics/SVG/1.1/DTD/svg11.dtd">
<svg version="1.1" id="Layer_1" xmlns="http://www.w3.org/2000/svg" xmlns:xlink="http://www.w3.org/1999/xlink" x="0px" y="0px"
	 viewBox="0 0 750 1334" enable-background="new 0 0 750 1334" xml:space="preserve">
<polygon fill="#66FF00" points="633.6,285.6 538,310 475.5,333 475.8,647.5 633.6,648.5 "/>
<line fill="none" stroke="#A0832F" stroke-width="2" stroke-linecap="round" x1="3.5" y1="1148" x2="598.5" y2="1170"/>
<line fill="none" stroke="#A0832F" stroke-width="2" stroke-linecap="round" x1="598.5" y1="1084" x2="598.5" y2="1202"/>
<g>
	<g>
		<g>
			<defs>
				<rect id="SVGID_1_" x="-46" y="-31" width="680.1" height="1390"/>
			</defs>
			<clipPath id="SVGID_2_">
				<use xlink:href="#SVGID_1_"  overflow="visible"/>
			</clipPath>
			
				<line clip-path="url(#SVGID_2_)" fill="none" stroke="#A0832F" stroke-width="2" stroke-linecap="round" x1="599" y1="1202" x2="619.5" y2="1358"/>
		</g>
	</g>
	<g>
		<g>
			<defs>
				<rect id="SVGID_3_" x="-46" y="-31" width="680.1" height="1390"/>
			</defs>
			<clipPath id="SVGID_4_">
				<use xlink:href="#SVGID_3_"  overflow="visible"/>
			</clipPath>
			
				<line clip-path="url(#SVGID_4_)" fill="none" stroke="#A0832F" stroke-width="2" stroke-linecap="round" x1="608.5" y1="166" x2="608.5" y2="-30"/>
		</g>
	</g>
	<g>
		<g>
			<defs>
				<rect id="SVGID_5_" x="-46" y="-31" width="680.1" height="1390"/>
			</defs>
			<clipPath id="SVGID_6_">
				<use xlink:href="#SVGID_5_"  overflow="visible"/>
			</clipPath>
			<line clip-path="url(#SVGID_6_)" fill="none" stroke="#A0832F" stroke-linecap="round" x1="608" y1="120" x2="-45.5" y2="120"/>
		</g>
	</g>
</g>
<line fill="none" stroke="#A0832F" stroke-linecap="round" x1="-11.5" y1="174" x2="554.5" y2="174"/>
<line fill="none" stroke="#A0832F" stroke-linecap="round" x1="-3.5" y1="182" x2="554.5" y2="182"/>
<line fill="none" stroke="#A0832F" stroke-linecap="round" x1="234.5" y1="182.5" x2="234.5" y2="1154"/>
<line fill="none" stroke="#A0832F" stroke-width="2" stroke-linecap="round" x1="550.5" y1="648" x2="550.5" y2="1084"/>
<line fill="none" stroke="#A0832F" stroke-linecap="round" x1="599" y1="1084" x2="613.5" y2="1084"/>
<line fill="none" stroke="#A0832F" stroke-linecap="round" x1="613.5" y1="1084.5" x2="613.5" y2="648"/>
<g>
	<g>
		<g>
			<defs>
				<rect id="SVGID_7_" x="-46" y="-31" width="680.1" height="1390"/>
			</defs>
			<clipPath id="SVGID_8_">
				<use xlink:href="#SVGID_7_"  overflow="visible"/>
			</clipPath>
			<line clip-path="url(#SVGID_8_)" fill="none" stroke="#A0832F" stroke-linecap="round" x1="633.6" y1="648" x2="550" y2="648"/>
		</g>
	</g>
</g>
<line fill="none" stroke="#A0832F" stroke-linecap="round" x1="538.5" y1="647.5" x2="538.5" y2="310"/>
<line fill="none" stroke="#A0832F" stroke-width="2" stroke-linecap="round" x1="538" y1="310" x2="475.5" y2="333"/>
<line fill="none" stroke="#A18200" stroke-width="2" stroke-linecap="round" x1="475.3" y1="333.5" x2="475.3" y2="647.5"/>
<line fill="none" stroke="#A0832F" stroke-width="2" stroke-linecap="round" x1="475.8" y1="647.5" x2="550" y2="647.5"/>
<g>
	<g>
		<g>
			<defs>
				<rect id="SVGID_9_" x="-46" y="-31" width="680.1" height="1390"/>
			</defs>
			<clipPath id="SVGID_10_">
				<use xlink:href="#SVGID_9_"  overflow="visible"/>
			</clipPath>
			
				<line clip-path="url(#SVGID_10_)" fill="none" stroke="#A0832F" stroke-linecap="round" x1="609" y1="292" x2="633.5" y2="286.1"/>
		</g>
	</g>
	<g>
		<g>
			<defs>
				<rect id="SVGID_11_" x="-46" y="-31" width="680.1" height="1390"/>
			</defs>
			<clipPath id="SVGID_12_">
				<use xlink:href="#SVGID_11_"  overflow="visible"/>
			</clipPath>
			
				<line clip-path="url(#SVGID_12_)" fill="none" stroke="#A0832F" stroke-linecap="round" x1="633.6" y1="285.6" x2="633.6" y2="648.5"/>
		</g>
	</g>
	<g>
		<g>
			<defs>
				<rect id="SVGID_13_" x="-46" y="-31" width="680.1" height="1390"/>
			</defs>
			<clipPath id="SVGID_14_">
				<use xlink:href="#SVGID_13_"  overflow="visible"/>
			</clipPath>
			
				<line clip-path="url(#SVGID_14_)" fill="none" stroke="#A0832F" stroke-linecap="round" x1="608.5" y1="166.5" x2="633.1" y2="162"/>
		</g>
	</g>
	<g>
		<g>
			<defs>
				<rect id="SVGID_15_" x="-46" y="-31" width="680.1" height="1390"/>
			</defs>
			<clipPath id="SVGID_16_">
				<use xlink:href="#SVGID_15_"  overflow="visible"/>
			</clipPath>
			
				<line clip-path="url(#SVGID_16_)" fill="none" stroke="#A0832F" stroke-linecap="round" x1="633.1" y1="161.5" x2="633.1" y2="280"/>
		</g>
	</g>
</g>
<line fill="none" stroke="#A0832F" stroke-linecap="round" x1="632.6" y1="280" x2="608.4" y2="281.6"/>
<line fill="none" stroke="#A0832F" stroke-width="2" stroke-linecap="round" x1="554.4" y1="286.1" x2="554.5" y2="173.5"/>
<g>
	<g>
		<g>
			<defs>
				<rect id="SVGID_17_" x="-46" y="-31" width="680.1" height="1390"/>
			</defs>
			<clipPath id="SVGID_18_">
				<use xlink:href="#SVGID_17_"  overflow="visible"/>
			</clipPath>
			<path clip-path="url(#SVGID_18_)" fill="none" stroke="#A0832F" d="M618.1,195.4c0,3.8-1.3,6.3-5.1,6.3h-3.6V189h3.9
				C616.6,189,618.1,191.4,618.1,195.4z M622.4,195.4c0-6.9-3.7-10.1-9.1-10.1H605v20.2h7.6C618.6,205.5,622.4,202.1,622.4,195.4z
				 M585.3,205.5h16.6v-3.9h-12.3v-4.4H600v-3.8h-10.3v-4.3h11.8v-3.8h-16.1v20.2H585.3z M575.7,197.3h-3.9l2-6.9L575.7,197.3z
				 M570.6,201.1h6.1l1.3,4.4h4.6l-6.6-20.2h-4.4l-6.8,20.2h4.5L570.6,201.1z"/>
		</g>
	</g>
</g>
<line fill="none" stroke="#A0832F" stroke-linecap="round" x1="588.6" y1="237.4" x2="592.8" y2="223.5"/>
<line fill="none" stroke="#A0832F" stroke-linecap="round" x1="593" y1="223.4" x2="593.6" y2="223.4"/>
<line fill="none" stroke="#A0832F" stroke-linecap="round" x1="592.8" y1="223.4" x2="593.5" y2="232.2"/>
<line fill="none" stroke="#A0832F" stroke-linecap="round" x1="593.5" y1="232.3" x2="598" y2="229.1"/>
<line fill="none" stroke="#A0832F" stroke-linecap="round" x1="598" y1="229.5" x2="593" y2="247.8"/>
<line fill="none" stroke="#A0832F" stroke-linecap="round" x1="593.4" y1="247.7" x2="595.8" y2="246.9"/>
<line fill="none" stroke="#A0832F" stroke-linecap="round" x1="595.6" y1="247.4" x2="590.8" y2="255.6"/>
<line fill="none" stroke="#A0832F" stroke-linecap="round" x1="590.5" y1="255.3" x2="588.2" y2="248.9"/>
<line fill="none" stroke="#A0832F" stroke-linecap="round" x1="588.2" y1="248.7" x2="589.8" y2="248"/>
<line fill="none" stroke="#A0832F" stroke-linecap="round" x1="590.4" y1="247.7" x2="593.2" y2="237.1"/>
<line fill="none" stroke="#A0832F" stroke-linecap="round" x1="593.2" y1="236.9" x2="588.6" y2="237.4"/>
<g>
	<g>
		<g>
			<defs>
				<rect id="SVGID_19_" x="-46" y="-31" width="680.1" height="1390"/>
			</defs>
			<clipPath id="SVGID_20_">
				<use xlink:href="#SVGID_19_"  overflow="visible"/>
			</clipPath>
			<path clip-path="url(#SVGID_20_)" fill="none" stroke="#A0832F" d="M614,225.7c0-6.1-4.9-11-11-11c-5.7,0-10,4.4-12.8,9.9
				c-2-2.8-3.4-4.6-7.1-4.6c-6.1,0-11,4.6-11,12.9c0,12,10.1,24.8,20.8,32.2C604.2,255.8,614,239.2,614,225.7z"/>
		</g>
	</g>
</g>
<line fill="none" stroke="#A0832F" stroke-width="2" stroke-linecap="round" x1="551" y1="1084" x2="598.5" y2="1084"/>
<line fill="none" stroke="#A0832F" stroke-width="2" x1="608.5" y1="281.8" x2="608.5" y2="292.3"/>
<line fill="none" stroke="#A0832F" stroke-width="2" stroke-linecap="round" x1="608.6" y1="282" x2="554.4" y2="285.6"/>
<line fill="none" stroke="#A0832F" stroke-width="2" stroke-linecap="round" x1="538" y1="310" x2="608.5" y2="292.1"/>
<line fill="none" stroke="#A0832F" stroke-width="2" stroke-linecap="round" x1="554.5" y1="173.5" x2="609.1" y2="166"/>
</svg>
