<?xml version="1.0" encoding="utf-8"?>
<!-- Generator: Adobe Illustrator 18.0.0, SVG Export Plug-In . SVG Version: 6.00 Build 0)  -->
<!DOCTYPE svg PUBLIC "-//W3C//DTD SVG 1.1//EN" "http://www.w3.org/Graphics/SVG/1.1/DTD/svg11.dtd">
<svg version="1.1" id="Layer_1" xmlns="http://www.w3.org/2000/svg" xmlns:xlink="http://www.w3.org/1999/xlink" x="0px" y="0px"
	 viewBox="0 0 750 1334" enable-background="new 0 0 750 1334" xml:space="preserve">
<rect x="314.5" y="541.4" fill="#65FF00" width="30.3" height="23.6"/>
<g>
	<g>
		<defs>
			<rect id="SVGID_1_" x="-13.4" y="-68.4" width="771.4" height="1385.3"/>
		</defs>
		<clipPath id="SVGID_2_">
			<use xlink:href="#SVGID_1_"  overflow="visible"/>
		</clipPath>
		<line clip-path="url(#SVGID_2_)" fill="none" stroke="#A18200" stroke-width="2" x1="-13.4" y1="1079.6" x2="190.6" y2="1079.6"/>
	</g>
</g>
<line fill="none" stroke="#A18200" stroke-width="2" x1="190.6" y1="1080.1" x2="304.6" y2="869.6"/>
<line fill="none" stroke="#A18200" x1="361.6" y1="868.9" x2="361.6" y2="332.6"/>
<line fill="none" stroke="#A18200" x1="361.1" y1="332.6" x2="548.6" y2="332.6"/>
<line fill="none" stroke="#A18200" x1="548.6" y1="333.1" x2="545.6" y2="868.9"/>
<line fill="none" stroke="#A18200" stroke-width="2" x1="565.1" y1="868.9" x2="643.6" y2="1240.6"/>
<line fill="none" stroke="#A18200" x1="644" y1="1240.7" x2="700.6" y2="1240.7"/>
<g>
	<g>
		<defs>
			<rect id="SVGID_3_" x="-13.4" y="-68.4" width="771.4" height="1385.3"/>
		</defs>
		<clipPath id="SVGID_4_">
			<use xlink:href="#SVGID_3_"  overflow="visible"/>
		</clipPath>
		<line clip-path="url(#SVGID_4_)" fill="none" stroke="#A18200" x1="700.6" y1="1241.2" x2="745.6" y2="1316.6"/>
	</g>
</g>
<line fill="none" stroke="#A18200" x1="700.1" y1="1241.2" x2="700.6" y2="173.6"/>
<line fill="none" stroke="#A18200" x1="644" y1="1241.2" x2="644" y2="173.6"/>
<line fill="none" stroke="#A18200" x1="644.5" y1="173.6" x2="701.1" y2="173.6"/>
<g>
	<g>
		<defs>
			<rect id="SVGID_5_" x="-13.4" y="-68.4" width="771.4" height="1385.3"/>
		</defs>
		<clipPath id="SVGID_6_">
			<use xlink:href="#SVGID_5_"  overflow="visible"/>
		</clipPath>
		<line clip-path="url(#SVGID_6_)" fill="none" stroke="#A18200" x1="701.1" y1="174.1" x2="757.6" y2="107.6"/>
	</g>
</g>
<line fill="none" stroke="#A18200" x1="644.5" y1="174.4" x2="735.6" y2="-27.4"/>
<line fill="none" stroke="#A18200" stroke-width="2" x1="304.5" y1="869.9" x2="564.6" y2="869.9"/>
<g>
	<g>
		<defs>
			<rect id="SVGID_7_" x="-13.4" y="-68.4" width="771.4" height="1385.3"/>
		</defs>
		<clipPath id="SVGID_8_">
			<use xlink:href="#SVGID_7_"  overflow="visible"/>
		</clipPath>
		<line clip-path="url(#SVGID_8_)" fill="none" stroke="#A18200" x1="564.6" y1="869.9" x2="564.6" y2="-68.4"/>
	</g>
</g>
<rect x="315.1" y="542.1" fill="none" stroke="#A18200" width="29" height="22"/>
<line fill="none" stroke="#A18200" x1="190.6" y1="1079.1" x2="190.6" y2="-19.4"/>
<line fill="none" stroke="#A18200" x1="305" y1="868.9" x2="305" y2="-9.4"/>
<line fill="none" stroke="#A18200" x1="371.6" y1="342.6" x2="371.6" y2="870.4"/>
<line fill="none" stroke="#A18200" x1="371.1" y1="342.6" x2="541.6" y2="342.6"/>
<line fill="none" stroke="#A18200" x1="541.6" y1="343.1" x2="541.6" y2="870.9"/>
<g>
	<g>
		<defs>
			<rect id="SVGID_9_" x="-13.4" y="-68.4" width="771.4" height="1385.3"/>
		</defs>
		<clipPath id="SVGID_10_">
			<use xlink:href="#SVGID_9_"  overflow="visible"/>
		</clipPath>
		<path clip-path="url(#SVGID_10_)" fill="none" stroke="#A18200" d="M335.2,549.2h4v-1.6h-5.4l-0.6,5.3l1.5,0.2
			c0.4-0.8,1.1-1.1,1.8-1.1c0.9,0,1.6,0.6,1.6,1.6s-0.7,1.7-1.9,1.7c-1,0-1.6-0.7-1.9-1.4l-1.6,0.5c0.3,1.3,1.7,2.5,3.5,2.5
			c2.1,0,3.7-1.3,3.7-3.4c0-1.9-1.3-3-3.1-3c-0.6,0-1.3,0.3-1.8,0.7L335.2,549.2z M326.4,552.1c0-1.8,0.4-3.2,1.8-3.2
			c1.3,0,1.8,1.3,1.8,3.2s-0.5,3.2-1.8,3.2C326.8,555.2,326.4,554,326.4,552.1z M324.6,552.1c0,2.9,1.2,4.8,3.6,4.8
			c2.3,0,3.6-1.9,3.6-4.8c0-3-1.3-4.8-3.6-4.8S324.6,549.1,324.6,552.1z M320.7,556.6h1.8v-9h-1.3c-0.3,0.9-1,1.4-2,1.6v1.5l1.5-0.5
			V556.6z"/>
	</g>
</g>
</svg>
