<?xml version="1.0" encoding="utf-8"?>
<!-- Generator: Adobe Illustrator 18.0.0, SVG Export Plug-In . SVG Version: 6.00 Build 0)  -->
<!DOCTYPE svg PUBLIC "-//W3C//DTD SVG 1.1//EN" "http://www.w3.org/Graphics/SVG/1.1/DTD/svg11.dtd">
<svg version="1.1" id="Layer_1" xmlns="http://www.w3.org/2000/svg" xmlns:xlink="http://www.w3.org/1999/xlink" x="0px" y="0px"
	 viewBox="0 0 750 1334" enable-background="new 0 0 750 1334" xml:space="preserve">
<circle fill="#65FF00" cx="463.2" cy="683.7" r="21.7"/>
<g>
	<g>
		<defs>
			<rect id="SVGID_1_" x="-18" y="-39.5" width="798.3" height="1437.5"/>
		</defs>
		<clipPath id="SVGID_2_">
			<use xlink:href="#SVGID_1_"  overflow="visible"/>
		</clipPath>
		<path clip-path="url(#SVGID_2_)" fill="none" stroke="#9F822F" stroke-linecap="round" d="M130.4,225.1c4.7,0,9.1-4,9.1-11v-2.3
			c0-5.8-4.1-10.9-9.4-10.9c-5.8,0-9.3,4.8-9.3,12S124.8,225.1,130.4,225.1z M139.9,228.1c-0.1,0.1-0.2,0.3-0.3,0.4h0.3
			C139.9,228.4,139.9,228.2,139.9,228.1z M77.7,211.2v17.5h14.2v-20.9c0-4.2-2.7-6.8-6.4-6.8C83.1,200.9,78,202.3,77.7,211.2z
			 M12.3,211.2v17.7h14.2v-21.1c0-4.2-2.7-6.8-6.4-6.8C17.7,200.9,12.6,202.3,12.3,211.2z M57.2,187.1H46.7v-9.9h10.5V187.1z
			 M297.2,228l-5-267l-306,27l-3.5,209.6c1.7-2.9,4.2-5.6,7.6-5.6c3.3,0,5.8,2.1,6.9,4.1l-5.3,8.9c-0.6-1.4-2.2-2.9-3.7-2.9
			c-3.1,0-5.7,3.4-5.7,10.4v0.5v16l18.9-0.1v-36.1h9.3l1.1,5.7c1.9-3.7,6.4-6.8,11-6.8c8.7,0,14.6,5.1,14.6,15.2v21.9h9.1v-35.9
			h10.9v35.9h9.5v-35.9h9.3l1.1,5.7c1.9-3.7,6.4-6.8,11-6.8c8.7,0,14.6,5.1,14.6,15.2v21.7h12.2c-3.1-3.6-4.9-9-4.9-15.6
			c0-13.1,7.5-21.2,17.9-21.2c6,0,10.3,3.6,12.6,6.4l0.9-5.3h8.8v34.7c0,0.3,0,0.6,0,0.9L297.2,228z"/>
	</g>
</g>
<line fill="none" stroke="#9F822F" x1="545.2" y1="-17" x2="545.2" y2="1358"/>
<line fill="none" stroke="#9F822F" x1="615.2" y1="-22" x2="615.2" y2="801"/>
<g>
	<g>
		<defs>
			<rect id="SVGID_3_" x="-18" y="-39.5" width="798.3" height="1437.5"/>
		</defs>
		<clipPath id="SVGID_4_">
			<use xlink:href="#SVGID_3_"  overflow="visible"/>
		</clipPath>
		<line clip-path="url(#SVGID_4_)" fill="none" stroke="#9F822F" x1="615.7" y1="801" x2="780.2" y2="813"/>
	</g>
	<g>
		<defs>
			<rect id="SVGID_5_" x="-18" y="-39.5" width="798.3" height="1437.5"/>
		</defs>
		<clipPath id="SVGID_6_">
			<use xlink:href="#SVGID_5_"  overflow="visible"/>
		</clipPath>
		<line clip-path="url(#SVGID_6_)" fill="none" stroke="#9F822F" x1="614.7" y1="853" x2="614.7" y2="1398"/>
	</g>
	<g>
		<defs>
			<rect id="SVGID_7_" x="-18" y="-39.5" width="798.3" height="1437.5"/>
		</defs>
		<clipPath id="SVGID_8_">
			<use xlink:href="#SVGID_7_"  overflow="visible"/>
		</clipPath>
		<line clip-path="url(#SVGID_8_)" fill="none" stroke="#9F822F" x1="614.7" y1="854" x2="779.2" y2="866"/>
	</g>
	<g>
		<defs>
			<rect id="SVGID_9_" x="-18" y="-39.5" width="798.3" height="1437.5"/>
		</defs>
		<clipPath id="SVGID_10_">
			<use xlink:href="#SVGID_9_"  overflow="visible"/>
		</clipPath>
		<path clip-path="url(#SVGID_10_)" fill="none" stroke="#9F822F" d="M465.5,804c0-7.5-7.5-13.5-16.9-13.5c-0.8,0-1.6,0.1-2.4,0.1
			v-0.1l-118.3,2v18l118.3,7v-0.1c0.8,0.1,1.6,0.1,2.4,0.1C457.9,817.5,465.5,811.5,465.5,804z"/>
	</g>
	<g>
		<defs>
			<rect id="SVGID_11_" x="-18" y="-39.5" width="798.3" height="1437.5"/>
		</defs>
		<clipPath id="SVGID_12_">
			<use xlink:href="#SVGID_11_"  overflow="visible"/>
		</clipPath>
		<path clip-path="url(#SVGID_12_)" fill="none" stroke="#9F822F" d="M455,816.2c2.7,0.9,5.7,1.4,8.7,1.4c14.9,0,27-11.4,27-25.5
			s-12.1-25.5-27-25.5s-27,11.4-27,25.5"/>
	</g>
	<g>
		<defs>
			<rect id="SVGID_13_" x="-18" y="-39.5" width="798.3" height="1437.5"/>
		</defs>
		<clipPath id="SVGID_14_">
			<use xlink:href="#SVGID_13_"  overflow="visible"/>
		</clipPath>
		<path clip-path="url(#SVGID_14_)" fill="none" stroke="#9F822F" d="M465.7,804.5c6.6,0,10-5.4,10-12s-5.4-12-12-12s-13,4.4-13,11"
			/>
	</g>
	<g>
		<defs>
			<rect id="SVGID_15_" x="-18" y="-39.5" width="798.3" height="1437.5"/>
		</defs>
		<clipPath id="SVGID_16_">
			<use xlink:href="#SVGID_15_"  overflow="visible"/>
		</clipPath>
		<circle clip-path="url(#SVGID_16_)" fill="none" stroke="#9F822F" cx="462.7" cy="682.5" r="22"/>
	</g>
</g>
<polygon fill="none" stroke="#9F822F" points="463.7,693 462.2,693 462.2,688.5 462.2,688 461.7,688 460.7,688 460.2,688 
	460.2,688.5 460.2,693.5 460.2,694.5 460.2,697.5 460.2,698 460.7,698 463.7,698 464.2,698 464.2,697.5 464.2,693.5 464.2,693 "/>
<g>
	<g>
		<defs>
			<rect id="SVGID_17_" x="-18" y="-39.5" width="798.3" height="1437.5"/>
		</defs>
		<clipPath id="SVGID_18_">
			<use xlink:href="#SVGID_17_"  overflow="visible"/>
		</clipPath>
		<circle clip-path="url(#SVGID_18_)" fill="none" stroke="#9F822F" cx="461.7" cy="691" r="9"/>
	</g>
	<g>
		<defs>
			<rect id="SVGID_19_" x="-18" y="-39.5" width="798.3" height="1437.5"/>
		</defs>
		<clipPath id="SVGID_20_">
			<use xlink:href="#SVGID_19_"  overflow="visible"/>
		</clipPath>
		<path clip-path="url(#SVGID_20_)" fill="none" stroke="#9F822F" d="M479.3,695.4c2.8-3.6,4.5-8.1,4.5-12.9c0-11.6-9.4-21-21-21
			s-21,9.4-21,21"/>
	</g>
</g>
<line fill="none" stroke="#9F822F" x1="381.2" y1="-12" x2="381.2" y2="792"/>
<line fill="none" stroke="#9F822F" x1="381.2" y1="814.2" x2="381.2" y2="1355"/>
<g>
	<g>
		<defs>
			<rect id="SVGID_21_" x="-18" y="-39.5" width="798.3" height="1437.5"/>
		</defs>
		<clipPath id="SVGID_22_">
			<use xlink:href="#SVGID_21_"  overflow="visible"/>
		</clipPath>
		<path clip-path="url(#SVGID_22_)" fill="none" stroke="#9F822F" d="M133.5,133.2c2.1,0,3.6,1.5,3.6,3.9v14.5h6.2v-15
			c0-5.7-3.3-8.6-8.3-8.6c-2.6,0-5.2,1.8-6.3,3.9l-0.6-3.2h-5.3v22.9h6.2V139C129.2,134,132.1,133.2,133.5,133.2z M95.1,153.4
			c0.7,4.8,4.9,7.5,10.2,7.5c8.1,0,12.5-4.8,12.5-12.6v-19.6h-5l-0.5,3c-1.3-1.6-3.7-3.6-7.2-3.6c-5.9,0-10.1,4.6-10.1,12
			c0,7.5,4.1,12,10,12c3.1,0,5.5-1.6,6.8-3.5c0.3,4.2-2,7.3-6.3,7.3c-2.2,0-3.8-0.9-4.4-2.5L95.1,153.4L95.1,153.4z M106.5,146.9
			c-3.2,0-5.4-2.8-5.4-6.9c0-4.1,2-6.8,5.3-6.8c3,0,5.3,2.9,5.3,6.2v1.3C111.7,144.6,109.2,146.9,106.5,146.9z M84.4,125.4h6v-5.6
			h-6V125.4z M84.3,151.6h6.2v-22.9h-6.2V151.6z M74.2,145c0,1-1,2.1-3.6,2.1c-4.3,0-6.5-3.7-6.7-4.4l-4.3,3.2
			c1,3.2,5.6,6.3,10.8,6.3c5.5,0,9.5-3.1,9.5-7.6c0-4.3-3.4-6-6.4-6.6c-1.5-0.3-3-0.6-4.5-1c-2-0.5-2.8-1.1-2.8-1.9
			c0-1.2,1.2-2,3.4-2c3.6,0,5.4,2.4,6.2,3.5l3.7-3.7c-1.8-2.2-5-4.7-9.7-4.7c-5.4,0-9.4,2.7-9.4,7.2c0,4.2,3.6,6,6.7,6.8
			c1.5,0.4,3.3,0.8,4.8,1.1C73.5,143.5,74.2,144.1,74.2,145z M46.2,132.9c2.6,0,4.3,1.9,4.3,4.1h-8.7
			C41.9,134.9,43.6,132.9,46.2,132.9z M51.6,143.6c-0.9,2.2-2.7,3.5-5,3.5c-3.2,0-5.1-2.6-5-5.6h12.9l2.4-0.2c0,0,0.1-1.1,0.1-1.5
			c0-6.8-4-11.8-10.5-11.8c-7,0-11,5.3-11,12.1c0,7.7,4.9,12.2,11.2,12.2c4.9,0,8.5-2.7,10.3-6.8L51.6,143.6z M24.6,135.3
			c0,6.1-2.1,10.1-8.1,10.1h-5.8v-20.2H17C22.2,125.1,24.6,128.9,24.6,135.3z M31.6,135.3c0-11.1-5.9-16.2-14.6-16.2H3.6v32.5h12.1
			C25.4,151.6,31.6,146.1,31.6,135.3z"/>
	</g>
	<g>
		<defs>
			<rect id="SVGID_23_" x="-18" y="-39.5" width="798.3" height="1437.5"/>
		</defs>
		<clipPath id="SVGID_24_">
			<use xlink:href="#SVGID_23_"  overflow="visible"/>
		</clipPath>
		<path clip-path="url(#SVGID_24_)" fill="none" stroke="#9F822F" d="M194.1,99.4c0.7,4.8,4.9,7.5,10.2,7.5
			c8.1,0,12.5-4.8,12.5-12.6V74.6h-5l-0.5,3c-1.3-1.6-3.7-3.6-7.2-3.6c-5.9,0-10.1,4.6-10.1,12c0,7.5,4.1,12,10,12
			c3.1,0,5.5-1.6,6.8-3.5c0.3,4.2-2,7.3-6.3,7.3c-2.2,0-3.8-0.9-4.4-2.5L194.1,99.4L194.1,99.4z M205.5,92.9c-3.2,0-5.4-2.8-5.4-6.9
			s2-6.8,5.3-6.8c3,0,5.3,2.9,5.3,6.2v1.3C210.7,90.6,208.2,92.9,205.5,92.9z M180.1,79.2c2.1,0,3.6,1.5,3.6,3.9v14.5h6.2v-15
			c0-5.7-3.3-8.6-8.3-8.6c-2.6,0-5.2,1.8-6.3,3.9l-0.6-3.2h-5.3v23h6.2V85C175.8,80,178.7,79.2,180.1,79.2z M158,71.4h6v-5.6h-6
			V71.4z M158,97.6h6.2v-23H158V97.6z M143,79.2c2.1,0,3.6,1.5,3.6,3.9v14.5h6.2v-15c0-5.7-3.3-8.6-8.3-8.6c-2.6,0-5.2,1.8-6.3,3.9
			l-0.6-3.2h-5.3v23h6.2V85C138.7,80,141.6,79.2,143,79.2z M120.4,74.6h-4.9v23h6.2V85.9c0-4,1.4-6,3.2-6c0.9,0,1.8,0.8,2.1,1.6l3-5
			c-0.6-1.1-2-2.3-3.9-2.3c-2.4,0-4.1,2.5-4.9,4.4L120.4,74.6z M99.1,87.7c1.1-0.2,2.8-0.4,3.8-0.5v1c-0.4,3.8-4,5-5.8,5
			c-1.5,0-2.6-0.9-2.6-2.3C94.6,89.2,96.5,88.2,99.1,87.7z M102.9,83.4c-1.4,0.1-3.3,0.3-4.9,0.4c-4.2,0.5-9.4,2-9.4,7.7
			c0,4.3,3.5,6.7,7.2,6.7s6.4-2,7.8-3.5c0.3,2.2,1.9,3.4,4.1,3.4c1.5,0,3-0.7,3.5-1l0.9-4.8c-0.3,0.1-1.4,0.4-2,0.4
			c-0.7,0-1.3-0.4-1.3-1.3v-9.7c0-4.3-3.6-7.7-9.3-7.7c-5.6,0-9.1,2.7-10.8,6.3l4.6,2.7c0.3-1.2,1.9-4.3,5.8-4.3
			c2.5,0,3.7,1.7,3.7,3.4v1.3H102.9z M74.8,78.9c2.6,0,4.3,1.9,4.3,4.1h-8.7C70.5,80.9,72.2,78.9,74.8,78.9z M80.2,89.6
			c-0.9,2.2-2.7,3.5-5,3.5c-3.2,0-5.1-2.6-5-5.6H83l2.4-0.2c0,0,0.1-1.1,0.1-1.5C85.5,79,81.5,74,75,74c-7,0-11,5.3-11,12.1
			c0,7.7,4.9,12.2,11.2,12.2c4.9,0,8.6-2.7,10.3-6.8L80.2,89.6z M45.2,65.1h-7v32.5h23.5v-6.3H45.2V65.1z M1.9,86.4h7.7v7.7h5.3
			v-7.7h7.7v-5.1h-7.7v-7.7H9.6v7.7H1.9V86.4z"/>
	</g>
	<g>
		<defs>
			<rect id="SVGID_25_" x="-18" y="-39.5" width="798.3" height="1437.5"/>
		</defs>
		<clipPath id="SVGID_26_">
			<use xlink:href="#SVGID_25_"  overflow="visible"/>
		</clipPath>
		<path clip-path="url(#SVGID_26_)" fill="none" stroke="#9F822F" d="M119.9,12c-1.1-0.7-3-1.5-5.3-1.5c-3,0-6.3,1.6-6.3,6.5v3.6
			h-4.1v5.1h4.1v17.9h6.1V25.7h4.1v-5.1h-4.1v-3.4c0-0.9,0.6-1.5,1.5-1.5c0.7,0,1.5,0.4,2.2,0.9L119.9,12z M85.8,31.9
			c0-3.7,1.6-7.1,5-7.1c3.2,0,5.1,3,5.1,7.1c0,4.2-1.7,7.2-5.1,7.2S85.8,36.1,85.8,31.9z M79.6,32c0,7.4,4.1,12.2,11.2,12.2
			c6.7,0,11.2-4.7,11.2-12.3c0-7.5-4.7-11.9-11.2-11.9C83.8,20,79.6,25.1,79.6,32z M65.9,38.3C65,38.6,63.5,39,62.7,39
			c-1.2,0-1.8-0.8-1.8-1.9V25.7h4.7v-5.1h-4.7v-9.2l-6,5.8v3.4h-4v5.1h4v12.4c0,4,2.2,6.1,5.9,6.1c1.7,0,3.1-0.6,4.2-1.1L65.9,38.3z
			 M38.2,25.2c2.1,0,3.6,1.5,3.6,3.9v14.5H48v-15c0-5.7-3.3-8.6-8.3-8.6c-2.6,0-5.2,1.8-6.3,3.9l-0.6-3.2h-5.3v23h6.2V31
			C33.9,26,36.8,25.2,38.2,25.2z M12.8,24.9c2.6,0,4.3,1.9,4.3,4.1H8.4C8.5,26.9,10.2,24.9,12.8,24.9z M18.2,35.6
			c-0.9,2.2-2.7,3.5-5,3.5c-3.2,0-5.1-2.6-5-5.6H21l2.4-0.2c0,0,0.1-1.1,0.1-1.5C23.5,25,19.5,20,13,20C6,20,2,25.3,2,32.1
			c0,7.7,4.9,12.2,11.2,12.2c4.9,0,8.5-2.7,10.3-6.8L18.2,35.6z"/>
	</g>
</g>
</svg>
