<?xml version="1.0" encoding="utf-8"?>
<!-- Generator: Adobe Illustrator 18.0.0, SVG Export Plug-In . SVG Version: 6.00 Build 0)  -->
<!DOCTYPE svg PUBLIC "-//W3C//DTD SVG 1.1//EN" "http://www.w3.org/Graphics/SVG/1.1/DTD/svg11.dtd">
<svg version="1.1" id="Layer_1" xmlns="http://www.w3.org/2000/svg" xmlns:xlink="http://www.w3.org/1999/xlink" x="0px" y="0px"
	 viewBox="0 0 750 1334" enable-background="new 0 0 750 1334" xml:space="preserve">
<rect x="314.5" y="282.5" fill="#65FF00" width="166" height="131"/>
<g>
	<g>
		<defs>
			<rect id="SVGID_1_" x="147" y="-40" width="630.8" height="1437"/>
		</defs>
		<clipPath id="SVGID_2_">
			<use xlink:href="#SVGID_1_"  overflow="visible"/>
		</clipPath>
		<g clip-path="url(#SVGID_2_)">
			<g>
				<defs>
					<rect id="SVGID_3_" x="147" y="-40" width="630.8" height="1437"/>
				</defs>
				<defs>
					<rect id="SVGID_4_" x="147" y="-40" width="630.8" height="1437"/>
				</defs>
				<defs>
					<rect id="SVGID_5_" x="147" y="-40" width="630.8" height="1437"/>
				</defs>
				<defs>
					<rect id="SVGID_6_" x="147" y="-40" width="630.8" height="1437"/>
				</defs>
				<clipPath id="SVGID_7_">
					<use xlink:href="#SVGID_3_"  overflow="visible"/>
				</clipPath>
				<clipPath id="SVGID_8_" clip-path="url(#SVGID_7_)">
					<use xlink:href="#SVGID_4_"  overflow="visible"/>
				</clipPath>
				<clipPath id="SVGID_9_" clip-path="url(#SVGID_8_)">
					<use xlink:href="#SVGID_5_"  overflow="visible"/>
				</clipPath>
				<clipPath id="SVGID_10_" clip-path="url(#SVGID_9_)">
					<use xlink:href="#SVGID_6_"  overflow="visible"/>
				</clipPath>
				<line clip-path="url(#SVGID_10_)" fill="none" stroke="#A18200" stroke-width="2" x1="148" y1="-28" x2="148" y2="1382"/>
				<line clip-path="url(#SVGID_10_)" fill="none" stroke="#A18200" stroke-width="2" x1="262" y1="-31" x2="262" y2="1397"/>
				<line clip-path="url(#SVGID_10_)" fill="none" stroke="#A18200" stroke-width="2" x1="559" y1="-37" x2="559" y2="1397"/>
				<line clip-path="url(#SVGID_10_)" fill="none" stroke="#A18200" x1="598" y1="-40" x2="597" y2="954"/>
			</g>
			<g>
				<defs>
					<rect id="SVGID_11_" x="147" y="-40" width="630.8" height="1437"/>
				</defs>
				<clipPath id="SVGID_12_">
					<use xlink:href="#SVGID_11_"  overflow="visible"/>
				</clipPath>
				<line clip-path="url(#SVGID_12_)" fill="none" stroke="#A18200" x1="573.4" y1="959.7" x2="773.9" y2="1194.7"/>
			</g>
			<g>
				<defs>
					<rect id="SVGID_13_" x="147" y="-40" width="630.8" height="1437"/>
				</defs>
				<clipPath id="SVGID_14_">
					<use xlink:href="#SVGID_13_"  overflow="visible"/>
				</clipPath>
				<g clip-path="url(#SVGID_14_)">
					<g>
						<defs>
							<rect id="SVGID_15_" x="147" y="-40" width="630.8" height="1437"/>
						</defs>
						<defs>
							<rect id="SVGID_16_" x="147" y="-40" width="630.8" height="1437"/>
						</defs>
						<defs>
							<rect id="SVGID_17_" x="147" y="-40" width="630.8" height="1437"/>
						</defs>
						<clipPath id="SVGID_18_">
							<use xlink:href="#SVGID_15_"  overflow="visible"/>
						</clipPath>
						<clipPath id="SVGID_19_" clip-path="url(#SVGID_18_)">
							<use xlink:href="#SVGID_16_"  overflow="visible"/>
						</clipPath>
						<clipPath id="SVGID_20_" clip-path="url(#SVGID_19_)">
							<use xlink:href="#SVGID_17_"  overflow="visible"/>
						</clipPath>
						<line clip-path="url(#SVGID_20_)" fill="none" stroke="#A18200" x1="598.5" y1="1079" x2="598.5" y2="1397"/>
						<line clip-path="url(#SVGID_20_)" fill="none" stroke="#A18200" x1="574.9" y1="1050.3" x2="777.4" y2="1287.3"/>
						<g clip-path="url(#SVGID_20_)">
							<g opacity="0.5">
								<g>
									<defs>
										<rect id="SVGID_21_" x="304.5" y="274.5" width="186" height="141"/>
									</defs>
									<clipPath id="SVGID_22_">
										<use xlink:href="#SVGID_21_"  overflow="visible"/>
									</clipPath>
									
										<rect x="314.5" y="282.5" clip-path="url(#SVGID_22_)" fill="none" stroke="#A18200" stroke-width="2" width="166" height="131"/>
								</g>
							</g>
							<g>
								<defs>
									<rect id="SVGID_23_" x="147" y="-40" width="630.8" height="1437"/>
								</defs>
								<clipPath id="SVGID_24_">
									<use xlink:href="#SVGID_23_"  overflow="visible"/>
								</clipPath>
								<path clip-path="url(#SVGID_24_)" fill="none" stroke="#A18200" d="M429.3,316.5c-11,0-16.3,7.8-17,15.4l8.1,2
									c0.4-4,1.6-9.5,9-9.5c4,0,7.1,2.7,7.1,6.3c0,1.8-0.3,4.5-5.3,7.7c-2.9,1.9-6.1,3.9-8.6,5.8c-3,2.2-9.4,7.3-9.4,16.7h32.1
									v-8.1h-22.7c0.3-1.4,2.4-2.5,5.2-3.9c2.3-1.1,4-2,6-3c5.5-2.9,12-7.2,12-15.2C445.7,321.6,438.4,316.5,429.3,316.5z
									 M382.6,339.2c0-8.8,2.1-15.1,8.4-15.1c6.2,0,8.4,6.2,8.4,15.1s-2.2,15.1-8.4,15.1C384.5,354.3,382.6,348.2,382.6,339.2z
									 M373.8,339.2c0,14,5.8,22.8,17.2,22.8c10.9,0,17.2-9.1,17.2-22.8c0-14.1-6.4-22.7-17.2-22.7
									C380.1,316.5,373.8,325.1,373.8,339.2z M355.3,360.7h8.7v-43.1h-6.4c-1.2,4.4-4.6,6.9-9.4,7.6v7.1l7.1-2.5L355.3,360.7
									L355.3,360.7z"/>
							</g>
							<g>
								<defs>
									<rect id="SVGID_25_" x="147" y="-40" width="630.8" height="1437"/>
								</defs>
								<clipPath id="SVGID_26_">
									<use xlink:href="#SVGID_25_"  overflow="visible"/>
								</clipPath>
								<line clip-path="url(#SVGID_26_)" fill="none" stroke="#A18200" x1="574" y1="960" x2="574" y2="-18"/>
							</g>
							<g>
								<defs>
									<rect id="SVGID_27_" x="147" y="-40" width="630.8" height="1437"/>
								</defs>
								<clipPath id="SVGID_28_">
									<use xlink:href="#SVGID_27_"  overflow="visible"/>
								</clipPath>
								<g clip-path="url(#SVGID_28_)">
									<g>
										<defs>
											<rect id="SVGID_29_" x="147" y="-40" width="630.8" height="1437"/>
										</defs>
										<clipPath id="SVGID_30_">
											<use xlink:href="#SVGID_29_"  overflow="visible"/>
										</clipPath>
										<line clip-path="url(#SVGID_30_)" fill="none" stroke="#A18200" x1="574" y1="1050" x2="574" y2="1397"/>
									</g>
									<g>
										<defs>
											<rect id="SVGID_31_" x="147" y="-40" width="630.8" height="1437"/>
										</defs>
										<clipPath id="SVGID_32_">
											<use xlink:href="#SVGID_31_"  overflow="visible"/>
										</clipPath>
										<line clip-path="url(#SVGID_32_)" fill="none" stroke="#A18200" x1="597" y1="954" x2="751" y2="1130"/>
									</g>
									<g>
										<defs>
											<rect id="SVGID_33_" x="147" y="-40" width="630.8" height="1437"/>
										</defs>
										<clipPath id="SVGID_34_">
											<use xlink:href="#SVGID_33_"  overflow="visible"/>
										</clipPath>
										<line clip-path="url(#SVGID_34_)" fill="none" stroke="#A18200" x1="574" y1="960" x2="597.5" y2="954"/>
									</g>
									<g>
										<defs>
											<rect id="SVGID_35_" x="147" y="-40" width="630.8" height="1437"/>
										</defs>
										<clipPath id="SVGID_36_">
											<use xlink:href="#SVGID_35_"  overflow="visible"/>
										</clipPath>
										<g clip-path="url(#SVGID_36_)">
											<g>
												<defs>
													<rect id="SVGID_37_" x="147" y="-40" width="630.8" height="1437"/>
												</defs>
												<clipPath id="SVGID_38_">
													<use xlink:href="#SVGID_37_"  overflow="visible"/>
												</clipPath>
												<polyline clip-path="url(#SVGID_38_)" fill="none" stroke="#A18200" points="147.5,616.5 194.5,616.5 194.5,567.5 
													147.5,567.5 												"/>
											</g>
											<g>
												<defs>
													<rect id="SVGID_39_" x="147" y="-40" width="630.8" height="1437"/>
												</defs>
												<clipPath id="SVGID_40_">
													<use xlink:href="#SVGID_39_"  overflow="visible"/>
												</clipPath>
												<polyline clip-path="url(#SVGID_40_)" fill="none" stroke="#A18200" points="149,560.5 185,560.5 185,485.5 149,485.5 
																									"/>
											</g>
											<g>
												<defs>
													<rect id="SVGID_41_" x="147" y="-40" width="630.8" height="1437"/>
												</defs>
												<clipPath id="SVGID_42_">
													<use xlink:href="#SVGID_41_"  overflow="visible"/>
												</clipPath>
												<line clip-path="url(#SVGID_42_)" fill="none" stroke="#A18200" x1="221" y1="-8" x2="221" y2="843"/>
											</g>
											<g>
												<defs>
													<rect id="SVGID_43_" x="147" y="-40" width="630.8" height="1437"/>
												</defs>
												<clipPath id="SVGID_44_">
													<use xlink:href="#SVGID_43_"  overflow="visible"/>
												</clipPath>
												<g clip-path="url(#SVGID_44_)">
													<g>
														<defs>
															<rect id="SVGID_45_" x="147" y="-40" width="630.8" height="1437"/>
														</defs>
														<clipPath id="SVGID_46_">
															<use xlink:href="#SVGID_45_"  overflow="visible"/>
														</clipPath>
														<line clip-path="url(#SVGID_46_)" fill="none" stroke="#A18200" x1="221.5" y1="843" x2="148" y2="843"/>
													</g>
													<g>
														<defs>
															<rect id="SVGID_47_" x="147" y="-40" width="630.8" height="1437"/>
														</defs>
														<clipPath id="SVGID_48_">
															<use xlink:href="#SVGID_47_"  overflow="visible"/>
														</clipPath>
														<line clip-path="url(#SVGID_48_)" fill="none" stroke="#A18200" x1="221.5" y1="77" x2="263" y2="77"/>
													</g>
													<g>
														<defs>
															<rect id="SVGID_49_" x="147" y="-40" width="630.8" height="1437"/>
														</defs>
														<clipPath id="SVGID_50_">
															<use xlink:href="#SVGID_49_"  overflow="visible"/>
														</clipPath>
														<line clip-path="url(#SVGID_50_)" fill="none" stroke="#A18200" x1="221.5" y1="164" x2="261" y2="164"/>
													</g>
													<g>
														<defs>
															<rect id="SVGID_51_" x="147" y="-40" width="630.8" height="1437"/>
														</defs>
														<clipPath id="SVGID_52_">
															<use xlink:href="#SVGID_51_"  overflow="visible"/>
														</clipPath>
														<line clip-path="url(#SVGID_52_)" fill="none" stroke="#A18200" x1="221.5" y1="7" x2="263" y2="7"/>
													</g>
													<g>
														<defs>
															<rect id="SVGID_53_" x="147" y="-40" width="630.8" height="1437"/>
														</defs>
														<clipPath id="SVGID_54_">
															<use xlink:href="#SVGID_53_"  overflow="visible"/>
														</clipPath>
													</g>
												</g>
											</g>
										</g>
									</g>
								</g>
							</g>
						</g>
					</g>
				</g>
			</g>
		</g>
	</g>
</g>
</svg>
