<?xml version="1.0" encoding="utf-8"?>
<!-- Generator: Adobe Illustrator 18.0.0, SVG Export Plug-In . SVG Version: 6.00 Build 0)  -->
<!DOCTYPE svg PUBLIC "-//W3C//DTD SVG 1.1//EN" "http://www.w3.org/Graphics/SVG/1.1/DTD/svg11.dtd">
<svg version="1.1" id="Layer_1" xmlns="http://www.w3.org/2000/svg" xmlns:xlink="http://www.w3.org/1999/xlink" x="0px" y="0px"
	 viewBox="0 0 750 1334" enable-background="new 0 0 750 1334" xml:space="preserve">
<polygon fill="#65FF00" points="293.5,517.5 293.5,482.5 259.5,482.5 259.5,517 "/>
<g>
	<g>
		<g>
			<defs>
				<rect id="SVGID_1_" x="-24" y="-85" width="794.1" height="1419"/>
			</defs>
			<clipPath id="SVGID_2_">
				<use xlink:href="#SVGID_1_"  overflow="visible"/>
			</clipPath>
			<line clip-path="url(#SVGID_2_)" fill="none" stroke="#A18200" stroke-width="2" x1="194" y1="-85" x2="194" y2="1334"/>
		</g>
	</g>
</g>
<line fill="none" stroke="#A18200" stroke-width="2" x1="194.5" y1="989" x2="762" y2="827"/>
<line fill="none" stroke="#A18200" x1="320" y1="955" x2="320" y2="291"/>
<line fill="none" stroke="#A18200" x1="320.5" y1="291" x2="514" y2="309"/>
<line fill="none" stroke="#A18200" x1="514.1" y1="309.5" x2="514.1" y2="899"/>
<line fill="none" stroke="#A18200" x1="730" y1="839" x2="730" y2="317"/>
<g>
	<g>
		<g>
			<defs>
				<rect id="SVGID_3_" x="-24" y="-85" width="794.1" height="1419"/>
			</defs>
			<clipPath id="SVGID_4_">
				<use xlink:href="#SVGID_3_"  overflow="visible"/>
			</clipPath>
			<line clip-path="url(#SVGID_4_)" fill="none" stroke="#A18200" x1="729.5" y1="317" x2="770" y2="321"/>
		</g>
	</g>
</g>
<line fill="none" stroke="#A18200" x1="-1" y1="197" x2="66" y2="202"/>
<line fill="none" stroke="#A18200" x1="66.1" y1="202.5" x2="90" y2="189"/>
<line fill="none" stroke="#A18200" x1="90.3" y1="188.6" x2="90.3" y2="105"/>
<g>
	<g>
		<g>
			<defs>
				<rect id="SVGID_5_" x="-24" y="-85" width="794.1" height="1419"/>
			</defs>
			<clipPath id="SVGID_6_">
				<use xlink:href="#SVGID_5_"  overflow="visible"/>
			</clipPath>
			<line clip-path="url(#SVGID_6_)" fill="none" stroke="#A18200" x1="89.8" y1="105" x2="-24" y2="95"/>
		</g>
	</g>
</g>
<line fill="none" stroke="#A18200" x1="492" y1="899" x2="492" y2="317"/>
<line fill="none" stroke="#A18200" x1="492.5" y1="317" x2="330" y2="300"/>
<line fill="none" stroke="#A18200" x1="330" y1="300" x2="330" y2="955"/>
<rect x="242.5" y="452.5" fill="none" stroke="#A18200" width="69" height="14"/>
<rect x="259.5" y="482.5" fill="none" stroke="#A18200" width="34" height="35"/>
<g>
	<g>
		<g>
			<defs>
				<rect id="SVGID_7_" x="-24" y="-85" width="794.1" height="1419"/>
			</defs>
			<clipPath id="SVGID_8_">
				<use xlink:href="#SVGID_7_"  overflow="visible"/>
			</clipPath>
			<path clip-path="url(#SVGID_8_)" fill="none" stroke="#A18200" d="M283.9,493.5c-1.1,0-1.7-0.6-1.7-1.3c0-0.6,0.5-1.2,1.7-1.2
				s1.7,0.6,1.7,1.2C285.6,492.9,285,493.5,283.9,493.5z M283.9,497.8c-1.2,0-1.9-0.6-1.9-1.4c0-0.7,0.6-1.4,1.9-1.4
				c1.2,0,1.9,0.7,1.9,1.4C285.8,497.2,285.1,497.8,283.9,497.8z M283.9,489.3c-1.7,0-3.7,0.8-3.7,2.9c0,0.8,0.5,1.6,1.1,2
				c-0.8,0.4-1.4,1.3-1.4,2.3c0,2.1,1.8,3.1,3.9,3.1s3.9-1,3.9-3.1c0-0.9-0.6-1.8-1.4-2.3c0.6-0.4,1.1-1.2,1.1-2
				C287.6,490.1,285.7,489.3,283.9,489.3z M273.3,494.4c0-2,0.5-3.4,1.9-3.4s1.9,1.4,1.9,3.4s-0.5,3.4-1.9,3.4
				C273.7,497.8,273.3,496.5,273.3,494.4z M271.3,494.4c0,3.2,1.3,5.2,3.9,5.2c2.5,0,3.9-2,3.9-5.2s-1.4-5.1-3.9-5.1
				C272.7,489.3,271.3,491.2,271.3,494.4z M267.1,499.3h2v-9.7h-1.4c-0.3,1-1,1.6-2.1,1.7v1.6l1.6-0.6v7H267.1z"/>
		</g>
	</g>
</g>
<polygon fill="none" stroke="#A18200" points="5.5,106 5.5,130.5 82.5,134.5 82.5,110 "/>
</svg>
