<?xml version="1.0" encoding="utf-8"?>
<!-- Generator: Adobe Illustrator 18.0.0, SVG Export Plug-In . SVG Version: 6.00 Build 0)  -->
<!DOCTYPE svg PUBLIC "-//W3C//DTD SVG 1.1//EN" "http://www.w3.org/Graphics/SVG/1.1/DTD/svg11.dtd">
<svg version="1.1" id="Layer_1" xmlns="http://www.w3.org/2000/svg" xmlns:xlink="http://www.w3.org/1999/xlink" x="0px" y="0px"
	 viewBox="0 0 750 1334" enable-background="new 0 0 750 1334" xml:space="preserve">
<line fill="none" stroke="#A18200" stroke-width="2" x1="0" y1="1009.8" x2="263" y2="1003.8"/>
<line fill="none" stroke="#A18200" stroke-width="2" x1="263" y1="1003.3" x2="263" y2="1049.8"/>
<g>
	<defs>
		<rect id="SVGID_1_" x="-27" y="-53.2" width="807.2" height="1146.1"/>
	</defs>
	<clipPath id="SVGID_2_">
		<use xlink:href="#SVGID_1_"  overflow="visible"/>
	</clipPath>
	<line clip-path="url(#SVGID_2_)" fill="none" stroke="#A18200" stroke-width="2" x1="263.5" y1="1049.8" x2="277" y2="1091.8"/>
	<line clip-path="url(#SVGID_2_)" fill="none" stroke="#A18200" stroke-width="2" x1="277.5" y1="1091.9" x2="411" y2="1079.8"/>
</g>
<line fill="none" stroke="#A18200" stroke-width="2" x1="411.1" y1="1079.3" x2="411.1" y2="992.8"/>
<line fill="none" stroke="#A18200" stroke-width="2" x1="411.1" y1="992.8" x2="645" y2="985.8"/>
<line fill="none" stroke="#A18200" stroke-width="2" x1="645" y1="985.3" x2="697" y2="1006.8"/>
<g>
	<defs>
		<rect id="SVGID_3_" x="-27" y="-53.2" width="807.2" height="1146.1"/>
	</defs>
	<clipPath id="SVGID_4_">
		<use xlink:href="#SVGID_3_"  overflow="visible"/>
	</clipPath>
	<line clip-path="url(#SVGID_4_)" fill="none" stroke="#A18200" stroke-width="2" x1="697.2" y1="1007.2" x2="780" y2="994.1"/>
</g>
<line fill="none" stroke="#A18200" x1="411.1" y1="992.3" x2="412.1" y2="11.8"/>
<line fill="none" stroke="#A18200" x1="263" y1="1003.3" x2="262.6" y2="-4.2"/>
<g>
	<defs>
		<rect id="SVGID_5_" x="-27" y="-53.2" width="807.2" height="1146.1"/>
	</defs>
	<clipPath id="SVGID_6_">
		<use xlink:href="#SVGID_5_"  overflow="visible"/>
	</clipPath>
	<line clip-path="url(#SVGID_6_)" fill="none" stroke="#A18200" x1="278" y1="1092.1" x2="278" y2="-14.2"/>
</g>
<line fill="none" stroke="#A18200" x1="0" y1="833.8" x2="261.5" y2="825.8"/>
<line fill="none" stroke="#A18200" x1="0" y1="783.8" x2="263" y2="775.8"/>
<line fill="none" stroke="#A18200" x1="-9" y1="359.8" x2="261.5" y2="368.8"/>
<line fill="none" stroke="#A18200" x1="0" y1="317.8" x2="261.5" y2="325.8"/>
<line fill="none" stroke="#A18200" x1="0" y1="302.8" x2="261.5" y2="310.8"/>
<line fill="none" stroke="#A18200" x1="412.1" y1="820.3" x2="623.6" y2="812.3"/>
<line fill="none" stroke="#A18200" x1="412.1" y1="770.3" x2="625.1" y2="762.3"/>
<line fill="none" stroke="#A18200" x1="411.1" y1="366.3" x2="615.6" y2="375.3"/>
<line fill="none" stroke="#A18200" x1="412.1" y1="324.3" x2="615.6" y2="332.3"/>
<line fill="none" stroke="#A18200" x1="412.1" y1="309.3" x2="615.6" y2="317.3"/>
<line fill="none" stroke="#A18200" x1="615.6" y1="375.8" x2="615.6" y2="766.3"/>
<line fill="none" stroke="#A18200" x1="616.1" y1="811.8" x2="616.1" y2="965.8"/>
<line fill="none" stroke="#A18200" x1="616.6" y1="965.8" x2="411" y2="973.8"/>
<g>
	<defs>
		<rect id="SVGID_7_" x="-27" y="-53.2" width="807.2" height="1146.1"/>
	</defs>
	<clipPath id="SVGID_8_">
		<use xlink:href="#SVGID_7_"  overflow="visible"/>
	</clipPath>
	<line clip-path="url(#SVGID_8_)" fill="none" stroke="#A18200" x1="261.5" y1="989.3" x2="-27" y2="997.3"/>
	<line clip-path="url(#SVGID_8_)" fill="none" stroke="#A18200" x1="644.6" y1="-53.2" x2="644.6" y2="980.1"/>
	<line clip-path="url(#SVGID_8_)" fill="none" stroke="#A18200" x1="697.4" y1="1010.8" x2="697.4" y2="-53.2"/>
</g>
<path fill="none" stroke="#A18200" d="M594.2,94.2v43h4.7v-43h7.1v-6h-18.8v6H594.2z M579.7,137.2h4.7v-49h-4.7V137.2z M557.7,137.2
	h5.3l4.3-16.9l4.1,16.9h5.4l-6.8-25.4l6.4-23.6h-5.3l-3.8,15.4l-3.6-15.4h-5.4l6.2,23.8L557.7,137.2z M538.5,137.2h17.8v-6.6h-13.2
	V114h11.1v-6.1h-11.1V93.5h12.6v-5.2h-17.3V137.2z"/>
<line fill="none" stroke="#A18200" x1="520" y1="70.8" x2="520" y2="158.8"/>
<line fill="none" stroke="#A18200" x1="520" y1="158.8" x2="506" y2="170.8"/>
<line fill="none" stroke="#A18200" x1="520.5" y1="158.8" x2="624" y2="160.8"/>
<polygon fill="none" stroke="#A18200" stroke-width="2" points="624.5,80.3 569.5,76 569.5,-6.7 563.5,-6.7 563.5,75.5 519.5,71.3 
	505.5,86.2 505.5,170.3 614.2,174.3 624.5,161.3 "/>
<line fill="none" stroke="#A18200" x1="615.1" y1="332.8" x2="615.1" y2="169.8"/>
<line fill="none" stroke="#A18200" x1="616.1" y1="78.8" x2="616.1" y2="-28.2"/>
<polygon fill="#65FF00" points="412.1,584.8 415.6,584.8 416,512.8 412.2,512.8 "/>
<g>
	<defs>
		<rect id="SVGID_9_" x="-27" y="-53.2" width="807.2" height="1146.1"/>
	</defs>
	<clipPath id="SVGID_10_">
		<use xlink:href="#SVGID_9_"  overflow="visible"/>
	</clipPath>
	<path clip-path="url(#SVGID_10_)" fill="none" stroke="#65FF00" stroke-width="3" d="M370.7,654.5c0,0,134.2-52.1,74.2-66.1"/>
	<polygon clip-path="url(#SVGID_10_)" fill="#65FF00" points="436.7,586.5 449.1,594.6 444.9,588.4 451.4,584.8 	"/>
</g>
</svg>
