<?xml version="1.0" encoding="utf-8"?>
<!-- Generator: Adobe Illustrator 18.0.0, SVG Export Plug-In . SVG Version: 6.00 Build 0)  -->
<!DOCTYPE svg PUBLIC "-//W3C//DTD SVG 1.1//EN" "http://www.w3.org/Graphics/SVG/1.1/DTD/svg11.dtd">
<svg version="1.1" id="Layer_1" xmlns="http://www.w3.org/2000/svg" xmlns:xlink="http://www.w3.org/1999/xlink" x="0px" y="0px"
	 viewBox="0 0 750 1334" enable-background="new 0 0 750 1334" xml:space="preserve">
<polygon fill="#65FF00" points="243.6,441.7 244.8,489 524.2,508 533.8,466.5 "/>
<line fill="none" stroke="#A18200" x1="173.8" y1="1321.5" x2="249.8" y2="649.5"/>
<line fill="none" stroke="#A18200" x1="250.2" y1="649.4" x2="239.7" y2="583.5"/>
<line fill="none" stroke="#A18200" x1="239.3" y1="583.4" x2="139.8" y2="1351.5"/>
<line fill="none" stroke="#A18200" x1="250.7" y1="649.5" x2="375.6" y2="655.6"/>
<line fill="none" stroke="#A18200" x1="245" y1="676" x2="725.8" y2="697.5"/>
<line fill="none" stroke="#A18200" x1="725.8" y1="698" x2="779.8" y2="974.5"/>
<line fill="none" stroke="#A18200" x1="243.1" y1="441.5" x2="533.8" y2="466.5"/>
<g>
	<g>
		<defs>
			<rect id="SVGID_1_" x="-136.2" y="-58" width="1060.5" height="1424.5"/>
		</defs>
		<clipPath id="SVGID_2_">
			<use xlink:href="#SVGID_1_"  overflow="visible"/>
		</clipPath>
		<polygon clip-path="url(#SVGID_2_)" fill="none" stroke="#A18200" stroke-width="2" points="523.8,321.5 405.5,313.6 415.2,-57 
			404.8,-57 391.2,312.6 262.8,304 243.6,441.7 244.8,489 524.2,508 533.3,467.8 		"/>
	</g>
	<g>
		<defs>
			<rect id="SVGID_3_" x="-136.2" y="-58" width="1060.5" height="1424.5"/>
		</defs>
		<clipPath id="SVGID_4_">
			<use xlink:href="#SVGID_3_"  overflow="visible"/>
		</clipPath>
		<path clip-path="url(#SVGID_4_)" fill="none" stroke="#A18200" stroke-width="2" d="M371.2,641c0,17.7,25.2,32,56.3,32
			s56.3-14.3,56.3-32"/>
	</g>
	<g>
		<defs>
			<rect id="SVGID_5_" x="-136.2" y="-58" width="1060.5" height="1424.5"/>
		</defs>
		<clipPath id="SVGID_6_">
			<use xlink:href="#SVGID_5_"  overflow="visible"/>
		</clipPath>
		<path clip-path="url(#SVGID_6_)" fill="none" stroke="#A18200" d="M483.9,641c0-17.7-25.2-32-56.3-32s-56.3,14.3-56.3,32"/>
	</g>
	<g>
		<defs>
			<rect id="SVGID_7_" x="-136.2" y="-58" width="1060.5" height="1424.5"/>
		</defs>
		<clipPath id="SVGID_8_">
			<use xlink:href="#SVGID_7_"  overflow="visible"/>
		</clipPath>
		<path clip-path="url(#SVGID_8_)" fill="none" stroke="#A18200" stroke-width="2" d="M483.9,641c0-21.7-16.2-46.1-38.6-52.6
			l-2-64.4l0,0c0-0.1,0-0.2,0-0.2c0-5.9-5.2-4.8-14-4.8s-16-1.2-16,4.8c0,0.1,0,0.2,0,0.2l-1,63.8c-23.7,5.8-41,30.7-41,53.2"/>
	</g>
</g>
<line fill="none" stroke="#A18200" x1="400.7" y1="590.9" x2="-41.2" y2="567.9"/>
<line fill="none" stroke="#A18200" x1="-20.2" y1="513.5" x2="411.7" y2="541.3"/>
<line fill="none" stroke="#A18200" x1="-20.2" y1="505.5" x2="411.9" y2="533.3"/>
<line fill="none" stroke="#A18200" x1="-20.2" y1="496.5" x2="412.6" y2="524.4"/>
<line fill="none" stroke="#A18200" x1="-20.2" y1="502.5" x2="411.9" y2="530.3"/>
<line fill="none" stroke="#A18200" x1="444.6" y1="543.4" x2="756.7" y2="563.5"/>
<line fill="none" stroke="#A18200" x1="444.3" y1="535.4" x2="756.8" y2="555.5"/>
<line fill="none" stroke="#A18200" x1="444.7" y1="526.4" x2="756.7" y2="546.5"/>
<line fill="none" stroke="#A18200" x1="444.7" y1="532.4" x2="756.7" y2="552.5"/>
<line fill="none" stroke="#A18200" x1="474.4" y1="660.4" x2="783.8" y2="675.5"/>
<line fill="none" stroke="#A18200" x1="886.6" y1="618" x2="459.8" y2="594.5"/>
<path fill="none" stroke="#A18200" d="M460.8,345.1l-4.6,88l13.8,0.7l4.6-88l21,1.1l0.6-12.2l-55.4-2.9l-0.6,12.2L460.8,345.1z
	 M413.4,430.9l13.8,0.7l5.3-100.2l-13.8-0.7L413.4,430.9z M348.4,427.5l15.8,0.8l14.5-33.9l10.3,35.2l16,0.8l-17.3-53l21.5-47.3
	l-15.8-0.8l-13,30.9l-9-32.1l-15.9-0.8l15.9,49.7L348.4,427.5z M291.7,424.5l52.7,2.8l0.7-13.4l-38.9-2l1.8-34.2l32.7,1.7l0.7-12.5
	l-32.7-1.7l1.5-29.4l37.3,2L348,327l-51.1-2.7L291.7,424.5z"/>
</svg>
