<?xml version="1.0" encoding="utf-8"?>
<!-- Generator: Adobe Illustrator 18.0.0, SVG Export Plug-In . SVG Version: 6.00 Build 0)  -->
<!DOCTYPE svg PUBLIC "-//W3C//DTD SVG 1.1//EN" "http://www.w3.org/Graphics/SVG/1.1/DTD/svg11.dtd">
<svg version="1.1" id="Layer_1" xmlns="http://www.w3.org/2000/svg" xmlns:xlink="http://www.w3.org/1999/xlink" x="0px" y="0px"
	 viewBox="0 0 750 1334" enable-background="new 0 0 750 1334" xml:space="preserve">
<polygon fill="#65FF00" points="488.5,543.5 488.5,580.5 521.5,581.5 521.5,541.5 "/>
<line fill="none" stroke="#A18200" stroke-width="2" x1="124" y1="2" x2="124" y2="959"/>
<line fill="none" stroke="#A18200" stroke-width="2" x1="123.5" y1="959" x2="-33" y2="1000"/>
<line fill="none" stroke="#A18200" stroke-width="2" x1="122.5" y1="938" x2="619" y2="1204"/>
<line fill="none" stroke="#A18200" stroke-width="2" x1="619.2" y1="1204.4" x2="781" y2="1144"/>
<line fill="none" stroke="#A18200" x1="161" y1="310" x2="161" y2="959"/>
<line fill="none" stroke="#A18200" x1="160.5" y1="310" x2="477" y2="184"/>
<line fill="none" stroke="#A18200" x1="477.2" y1="183.5" x2="477.2" y2="511.7"/>
<g>
	<g>
		<defs>
			<rect id="SVGID_1_" x="-155.5" y="-22" width="1023" height="1405"/>
		</defs>
		<clipPath id="SVGID_2_">
			<use xlink:href="#SVGID_1_"  overflow="visible"/>
		</clipPath>
		<line clip-path="url(#SVGID_2_)" fill="none" stroke="#A18200" x1="618.9" y1="1205.4" x2="618.9" y2="-22"/>
	</g>
</g>
<polygon fill="none" stroke="#A18200" points="469.5,512.5 469.5,530.5 536.5,527.5 536.5,506.5 "/>
<polygon fill="none" stroke="#A18200" points="488.5,543.5 488.5,580.5 521.5,581.5 521.5,541.5 "/>
<line fill="none" stroke="#A18200" x1="477.2" y1="530.4" x2="477.2" y2="1128"/>
<line fill="none" stroke="#A18200" x1="172.3" y1="325" x2="172.3" y2="966"/>
<line fill="none" stroke="#A18200" x1="171.8" y1="324.9" x2="459.5" y2="210.5"/>
<line fill="none" stroke="#A18200" x1="459.7" y1="210" x2="459.7" y2="1120"/>
<line fill="none" stroke="#A18200" x1="293" y1="276" x2="293" y2="1029"/>
<g>
	<g>
		<defs>
			<rect id="SVGID_3_" x="-155.5" y="-22" width="1023" height="1405"/>
		</defs>
		<clipPath id="SVGID_4_">
			<use xlink:href="#SVGID_3_"  overflow="visible"/>
		</clipPath>
		<path clip-path="url(#SVGID_4_)" fill="none" stroke="#A18200" d="M515.3,558.4c0-2.5-1.5-4-3.4-4s-3.2,1.5-3.6,3.8l1.6,1
			c0.2-1.2,0.8-2.3,2-2.3c0.9,0,1.5,0.6,1.5,1.7c0,0.8-0.4,1.5-1.3,1.6c-0.3,0-0.8,0.1-1.2,0v2.4c0.4,0,0.9,0,1.2,0
			c0.9,0.1,1.4,0.7,1.4,1.6c0,1.1-0.7,1.9-1.8,1.9c-1.2,0-1.9-1.1-2-2.4l-1.7,0.8c0.3,2.3,1.8,4,3.7,4c2.1,0,3.7-1.6,3.7-4.4
			c0-1.6-0.7-2.5-1.4-2.9C514.7,560.8,515.3,559.9,515.3,558.4z M502,561.4c0-2.7,0.4-4.7,1.8-4.7c1.3,0,1.8,1.9,1.8,4.7
			c0,2.7-0.5,4.7-1.8,4.7C502.4,566.1,502,564.2,502,561.4z M500.2,561.4c0,4.3,1.2,7.1,3.6,7.1c2.3,0,3.6-2.8,3.6-7.1
			c0-4.4-1.3-7-3.6-7S500.2,557.1,500.2,561.4z M496.3,568.1h1.8v-13.3h-1.3c-0.3,1.4-1,2.1-2,2.4v2.2l1.5-0.8V568.1z"/>
	</g>
</g>
<line fill="none" stroke="#A18200" x1="534" y1="506" x2="534" y2="525"/>
<line fill="none" stroke="#A18200" x1="469" y1="528" x2="533.5" y2="525"/>
</svg>
